<?xml version='1.0' encoding='utf-8'?>
<svg xmlns="http://www.w3.org/2000/svg" enable-background="new 0 0 841.9 595.3" version="1.1" viewBox="0 0 841.9 595.3"> <style type="text/css">.st0{fill:url(#c);} .st1{fill:#2D2D2D;} .st2{fill:#0C0C0C;} .st3{fill:#FFFFFF;stroke:#000000;} .st4{fill:#E5E5E5;} .st5{fill:#FFFFFF;} .st6{fill:#100206;} .st7{fill:#C0959E;} .st8{fill:url(#b);} .st9{opacity:0.5;fill:#FFFFFF;} .st10{fill:url(#a);} .st11{fill:#D899AA;} .st12{fill:#6A313E;} .st13{opacity:0.6;fill:#FFFFFF;} .st14{opacity:0.6;fill:#8C7A79;} .st15{fill:#191919;} .st16{opacity:0.2;fill:#8C7A79;} .st17{fill:#0E0709;}</style> <radialGradient id="c" cx="420.94" cy="297.31" r="364.68" gradientUnits="userSpaceOnUse"> <stop stop-color="#fff" offset="0"/> <stop stop-color="#474747" offset="1"/> </radialGradient> <rect class="st0" y="-.7" width="841.9" height="595.9"/> <path class="st1" d="m595 588c-0.8-2.1-1.7-2.1-3.3-3.5-1.1-0.5-1.4-1.2-1-2.1 2.9-0.5 6.2-0.2 9.2 0-1.8-1.1-2-3.7-3.1-5.4-0.9-1.4-7.8-5.5-6.4-7.4 2.6 0.4 4.7 0.2 7.1 1.4-0.4-2.5-3.2-5.1-4.8-7.1-2.6-3.4-4.6-7-3.7-11.4 2.3-0.8 4.7 1.4 7 0.6-2.5-5.3-7.6-9.6-9.8-15.3-1.2-3.1-1.1-7.4-1.2-10.7-0.1-2.5 0-5.1 0-7.6-2.7-0.3-5.7-1.5-7.9-2.9-4.8-3-8.8-7.2-14.9-5.7-2.1 0.5-4.1 3.6-5.4 5.1-3.1 3.6-4.6 7-6.5 11.4-3.2 7.1-7.6 12.9-13.3 18.1-3.1 2.8-6.3 5.5-9.7 7.8-3.6 2.4-7.5 4.1-11.1 6.4-6.2 4-11.8 8-12.1 15.9-0.3 6.8 0.5 13.5 3.1 19.5h88.8v-1c0.2-2.1-0.1-3.8-1-6.1zm-9.8-69.1v0.8-0.8z"/> <path class="st1" d="m150.5 481.1c2.7-0.8 8.5-2.5 11.3-1-3.7 4.8-8.9 8.7-13.3 12.8-0.7 0.6-5.1 4.4-4.8 6 0.8 4 12.6-2 15.2-1 0.8 5.5-1.5 9.4-4.6 14-3.6 5.4-8 10.8-12.5 15.6 2.6 0.6 6.9-1.5 8.9-2.4 5.6-2.4 10.2-6.2 16.4-6.7 0.8 1.8-6.3 9.9-7.3 11.3-4.7 6.8-9.1 13.7-11.2 21.9-2.1 8.1-1.2 16.8-1.9 25.1 0.4-1.8 2.1-1.5 3.4-2.3 1.9 1.8 0.7 9 0.7 11.4v9.5h140v-0.1c0-4.1-0.9-7.9-1-12-0.1-3.8 0.1-7.2-0.7-11s-0.8-7.9-2.2-11.4c-3.7-9.4-10.5-17.2-15.9-25.7-1.8-2.8-3.4-5.3-4.4-8.4-2.2-6.4-5.8-11.2-9.7-16.8-3.1-4.6-7.4-9-11.7-12.4-2.5-2-3.7-3.1-5.8-5.4-2.3-2.5-4.4-2.5-7.3-3.6-4.4-1.7-8.2-5.4-11.1-9-1.6-1.7-2.7-3.7-3.2-5.9-1.1-2.9-2.4-4.3-3.8-6.8-1-1.7-2.3-3.2-3.2-4.9-1.2-2.3-1.5-5-3.4-7s-4.5-2.3-6.6-3.7c-0.6-0.3-1-0.7-1.1-1.3-0.9-0.7-2.1-1.2-2.8-1.9-1.4-1.3-2.1-3.9-3-5.6-0.6-1.2-1.5-3.2-3-3.4l1 1c-6.6 0-13.3-0.6-19.7 0.8-3 0.6-6.2 0.4-8.8 2.5-1.7 2.2-3.5 4.2-5.5 6-1.7 1.5-7.3 3.9-6.5 7.2 2.3 1.5 6.2 0.7 8.6 0.4 3.9-0.5 7.6-1.8 11.6-1.9 1.4 0 2.7 0 4.1 0.1-5 0.7-10.3 5-13.4 8-4.6 4.4-8.8 9.4-13.1 14-3 3.3-5.5 6.3-9.7 7.9 3.2 0.2 7.8-2.9 11-3.9z"/> <path class="st2" d="m617.4 353.6c0 3.4 1.2 5.2 2.8 8.1-0.3-5-1.2-9.9-2.7-14.7 0 1-0.1 2.1-0.1 3.1v3.5zm-5.5 216.1c0.9 1.3 1.9 2.5 2.8 3.8 1.2 1.8 1.9 3.6 3.4 5.4 1.2 1.2 2.2 2.5 3.2 3.9 0.1 0.1 0.2 0.3 0.3 0.4-0.4-0.6-0.7-1.1-1-1.7-0.7-1-1.4-1.9-2.2-2.7-1.7-2.3-2.6-5.1-4.3-7.4-1.5-2.1-1.8-4.6-2.7-7-1.1-2.9-2.1-5.8-2.9-8.8 0.1 1.6 0.1 3.2 0.2 4.8 0.4 3.6 1 6.3 3.2 9.3zm13.6 17.3c-1.5-1.1-2.7-2.4-3.9-3.8 0.3 0.4 0.6 0.9 0.9 1.3 0.7 0.8 2 1.9 3 2.5zm-20.2-48c0.6 5.6 1.8 11.2 3.3 16.6 0-0.9-0.1-1.8-0.3-2.7-0.5-3.1-0.4-6.2-0.7-9.3-0.4-3.6-0.8-7.9-2.4-11.2-0.1-0.1-0.1-0.2-0.2-0.3 0 2.3 0 4.6 0.3 6.9zm68.7-180.4c3.1 2.4 7.5 2 11.2 1.6-2.8-3.3-7.7-4.2-11.1-6.7-2.9-2.2-6.2-4.1-8.9-6.5l-2.4-2.4c0.7 1.3 1.3 2.6 2 3.9 2.1 3.9 5.8 7.5 9.2 10.1zm-2.6-10.6v-1.1c-0.1 0.4-0.1 0.8 0 1.1zm-90.5 233.8c0.5 2.4 1.1 5.7 2.7 7.1-0.5-2.7-1.6-4.9-2.7-7.1zm64.4-267.5c0.6 3.1 1.7 5.4 3.2 8.1 2.7 5.1 5.2 9.9 8.5 14.6 1.9 2.7 3.7 5.2 5.9 7.6-1.1-2.2-2.3-4.4-3.9-6.5-3.9-4.9-6.7-11.1-8.7-16.9-1.7-5.1-3.7-9.9-4.9-15.1-0.4-1.8-0.5-3.9-0.9-5.8-0.2 4.7-0.1 9.5 0.8 14zm-21.1 23.9c-0.2 1.2-1.2 3.5-0.7 4.7 2.2 0.8 3.9-6.1 4-7.3 0.2-2.8 0.1-5.7-0.3-8.6-0.4 1.6-1 3.2-1.5 4.8-0.6 2.2-1.1 4.3-1.5 6.4zm-237.3-190.6c-0.4 0.2-0.8 0.5-1.1 0.9-0.4 0.4-0.9 0.7-1.4 1.1 0.3-0.1 0.6-0.3 0.9-0.5 0.6-0.4 1.3-0.8 1.6-1.5zm-227.2 414.2c-0.1-1.3 0.6-2.6 0.7-3.9 0.1-1.2 0-2.5 0-3.7v-2.3c-0.6 3.3-0.9 6.6-0.7 9.9zm513-416c0.7-0.1 1.4 0 2.1 0 0.5 0 1-0.2 1.5-0.3 0.7-0.2 1.4-0.3 2.2-0.5 1.3-0.3 2.6-0.7 3.8-1.2 2.1-0.9 3.8-2.2 5.9-3.1 2.2-0.9 4.2-2 6.3-3.1 1.2-0.6 2.5-1.1 3.6-1.7 1.3-0.7 2.9-0.8 4-2 0.2-0.3 0.3-0.5 0.5-0.7v-1.2c-0.8 0.2-1.5 0.4-2.3 0.8-2.3 1.2-4.6 2.1-6.9 3.2-1.1 0.6-2 1.4-3 2-0.7 0.4-1.6 0.6-2.4 1-1.3 0.6-2.6 1.1-3.9 1.7-1.4 0.6-2.6 1.3-4 2-1.5 0.7-3.3 1.3-4.9 1.6s-3.2 0.7-4.8 0.8c-1.7 0.1-3.3 0.2-5 0.2h-6.4-11c-2.6 0-5.3 0.1-7.9-0.1-1.2-0.1-2.3-0.2-3.4-0.2l-0.1 0.1c-16.9-3.8-34.1-7.4-45.1-11.8-0.4-0.7-0.8-1.4-1.4-1.9-1.2-0.9-1-1.4 0-2.3 0.7-0.6 2.8-1.6 1.1-2.2-1.9-0.6-4.1-0.4-6-0.5-0.5 0-4.2 0.2-4.3-0.9s3-1.1 3.4-1.9c-0.5-0.2-2-0.1-2.3-0.1h-4.8c-2.1 0-4.4 0.3-6.5 0 0.2-2.3 2.9-2 4.1-3.7-0.8-0.7-5 1.2-5.4 1.4-2 0.8-3.9 1.6-5.9 2.4-0.8 0.6-1.7 0.8-2.7 0.8 0.1-0.6 0.7-1.1 1.1-1.6-1.9-0.6-4.5 0.2-6.4 0.4-1.6 0.1-3.2 0.3-4.8 0.5-0.7 0.2-1.3 0.3-2 0.3 0.2-0.5 0.8-0.6 1.2-0.9 0.6-0.5 0.9-1.1 1.6-1.4 0.7-0.1 1.2-0.4 1.8-0.9 0.9-0.9 1.9-1.6 3-2.3 0.8-0.4 1.9-1 2.8-1.1-1.8 0.1-3.7 0-5.5 0-2.3 0-4.2 0.1-6.5 0.7-1.4 0.3-2.8 0.5-4 1.1-1.5 0.7-2.9 1.7-4.2 2.6-1.2 0.9-2.3 1.7-3.6 2.3-1 0.5-1.9 1-2.8 1.6-0.5-0.4 0.6-1 0.2-1.5-0.2-0.2-2.1 0.2-2 0.2-1.7 0.2-3.1 0.5-4.7 1.1-1.4 0.5-2.7 1-4.1 1.4-1 0.3-2 0.4-3 0.7-0.7 0.2-1.4 0.7-2.1 0.9-2.8 1.1-5.4 2.6-8 4 0.4-1.7 1.5-4 2.9-5.2 1-0.8 1.7-1.7 2.7-2.6 1.5-1.3 2.5-3.1 4.2-4.2 1.2-0.8 2.5-1.5 3.8-2.2 1.2-0.6 2.1-1.5 3.3-2.3 1.6-1 3.5-1 5.3-1.4 2-0.5 3.8-1.3 5.8-1.7-1.4 0.3-2.9 0-4.3 0-1.9 0-3.8 0.2-5.7 0.4-1.4 0.2-2.7 0.9-4.1 1.3-2.3 0.6-4.3 1.3-6.5 2.1-1.2 0.4-2.4 0.9-3.5 1.5-0.7 0.3-1.5 0.5-2.3 0.5-0.8 0.3-1.4 0.7-2.1 1.2-1.2 0.7-2.4 1.4-3.7 1.9-3.1 1.4-5.8 2.6-8.2 5-2.6 2.6-5 5.7-7.2 8.7-1.2 1.6-1.8 3.2-2.2 5.2-0.1 0.4-0.2 0.9-0.2 1.3-4.9 2.7-8.4 5.7-9.8 8.9-8 18-23 23-35 11s-37 8-37 8c-4-4-8.7-6.5-13.7-8.2 1.9-1.1 3.8-2.2 5.7-3.5 1.6-1.1 3.3-2.3 4.8-3.6 0.4-0.3 1.9-1.4 2.1-2-2.9 0.7-5.5 2.4-8.5 2.9-1.5 0.2-2.9 0.1-4.4 0.1-0.5 0-1.3 0.1-1.9 0 0.1-0.3 0.3-0.2 0.6-0.2 0.6 0.1 1.1 0 1.6-0.1 1.1-0.3 2.3-1 3.3-1.5 0.5-0.3 1-0.6 1.5-1 0.6-0.5 1.3-1.1 1.9-1.7-1.9 1-4.1 1.4-6.2 1.5h-7.9c-1.2 0-2.6 0.2-3.8 0-0.5-0.1-1-0.2-1.5-0.4-0.5-0.1-1.8-0.5-0.6-0.8 0.8-0.2 1.7 0.1 2.5 0 0.7-0.1 1.4-0.2 2-0.5 0.9-0.3 1.6-0.8 2.3-1.3-1.6 0.8-3.4 1.1-5.3 1.2-1.7 0.1-3.5 0-5.3 0-0.5 0.1-0.9 0-1.2-0.2 0.5-0.6 1.6-0.4 2.2-0.6 1-0.4 1.9-1.5 2.6-2.3 0.8-1 1.5-2 2.2-3 1.9-2.9 3.5-5.9 4.7-9.1 0.5-1.4 1-2.8 1.3-4.2-0.7 1.5-1.7 2.8-3 3.9s-2.9 2.2-4.4 3.1c-0.5 0.4-1.4 1-2.1 0.9-0.2-0.7 0.7-1.8 1-2.2 1.1-1.6 2.4-3.1 3.4-4.8 0.9-1.4 1.7-3 2.5-4.5 0.6-1.1 0.9-2 1.2-3.2 0.7-2.8 0.4-5.8 0.4-8.6 0-0.6 0.3-5.6-0.4-5.8-0.2 0.6-0.2 1.2-0.4 1.7-0.3 0.7-0.6 1.4-1 2.1 0 0.1-0.9 2.3-1.4 1.6 0.1-0.4 0.3-0.7 0.5-1 0.2-0.4 0.3-0.9 0.2-1.4v-3.9-4.6c0 1-0.1 2.1-0.4 3.1 0 0.1-0.1 0.2-0.1 0.2-0.1-34.3-16.7-73.3-26-95-14.8-34.6-52.1 6-53 17.6-0.3 0.5-0.6 0.9-0.9 1.4-0.8 1.3-2 2.1-3.2 3-1 0.7-1.8 1-2.6 2s-0.9 1.9-2.2 2.1c-1.4 0.3-2.4-0.4-3.3 1.3-0.9 1.8-0.5 3.9-0.8 5.7-0.1 1-0.5 1.8-0.7 2.8 0.1 1-0.1 2-0.6 2.9-1.8 1.7-4.4-2.1-6-0.2-0.6 0.7 0.4 6.7-1.1 5.2-1.2 0.9-1.2 3.4-1.5 4.7-1.1 0.1-1.5-0.7-2.5-0.8-1.3 1.2-0.6 4.6-0.6 5.9 0.3 1.7 0.2 3.4-0.3 5.1-1.7 1.2-2.5-3.1-3.7-3.8-0.6 1.2-0.2 3-1.1 3.9-1 0.1-1.3-0.9-2.3-0.7-1.3 3.6 0.3 8-1.5 11.3-1.9-0.7-1.4-6.1-3.5-5.7-1.5 4.5-1.1 9.2-3.3 13.5-2.2-0.9-3-2.2-4.3-4.1-1.6 0.6-1.8 4.3-2.8 5.7-0.7-0.2-1.3-0.5-2-0.8-0.8 1 0.1 5.4-2 4.8-1-0.3-1.3-3.3-2-4.2-1.7 0.4-1 4.7-3.6 3.4-2-1-1.9-4.6-3.3-6.2-1.5 0.7-2.1 6-2.3 6.9-0.8 3.5-1 8.2-3.9 10.6-1.9-1.5-0.8-4.3-2.6-5.9-0.8 4-0.1 8.7-0.1 12.7v-0.6c-0.1 2.1 1.7 7.1 0.2 8.7-1.3-1.5-3.2-3.7-5-4.6-0.2 2.6 0.8 6.2-0.1 8.6-0.9 0-1.7-1.2-2.4-1.7-1.2 1.8 1.3 6.3 2.4 7.9-1.7-2.3-4.3-3.6-7.1-3-1.1 2.2 5.2 12.3-1.2 9.4-5.2-2.4-9-7.4-13-11.3-0.5-0.5-2.5-3-3.7-2.8-1 2.5 2.7 7.3 3.8 9.3 2.9 4.8 6 10.1 9.7 14.4 3.4 3.9 7.3 5.7 11.7 8.1 0.3 0.1 0.5 0.3 0.8 0.5h-9.2c-1.6 0-3.6-0.3-5.2 0.1-0.6 1.8 14.2 5.1 16 6.6-1.1 0.9-4.9-0.1-6.4 0.1-0.9 2.1-0.4 5.2 1.7 6.4 1 0.6 2.7 0.3 2.5 1.9-1.8 0.8-3.7 1.1-5.7 0.8-5 0.3-10 0.5-15 1-2.1 0.2-4.1 0.2-6 1.3s-3.4 2.2-5.5 3c-1.9 0.7-3.8 1.4-5.5 2.5-2.3 1.5-4.2 3.5-6.5 5-5.9 3.7-14.3 5.1-16.9 12.5-0.4 1.9-0.9 3.8-1.5 5.6-1.3 3.6-3.5 7-5.3 10.4-2.3 4.3-3.2 8.6-3.5 13.5-0.2 2.4-0.1 4.8 0 7.2-0.1-2.5 0-5.1 0.8-7.6 1.8-5.2 6.5-9.3 9.4-13.9 1.6-2.5 3.6-4.4 5.4-6.8 2.1-2.8 3.6-5.7 6.2-8.1 2.9-2.6 5.9-5.6 8.9-8 1.5-1.2 2.9-1.2 4.7-1.4 3.3-0.3 6.6-0.7 9.9-0.7 1.1 0 5.2-0.7 6 0.5 2.2 3.4-5.5 7.5-7.2 8.5-3.4 2-6.7 4.1-9.9 6.4-2 1.4-4.6 3.1-6.2 4.9-2.2 2.5-3.7 5.6-5.3 8.5-3 5.4-6.9 10.2-9.8 15.6-2.1 3.9-5 8-5.5 12.6-0.5 5.2-0.5 10.3-0.5 15.5 0.3-4.5 1.1-8.8 2.3-13.3 1.4-5.2 2.5-11.2 6.2-15.2 3-3.2 6.5-5.4 10.8-6.3 2.6-0.3 5.2-0.8 7.8-1.7 2-0.7 4.7-2.6 6.9-1.7-6.5 4.7-16.6 8.3-19.7 16.5-1.1 2.9-1.2 7.7-0.7 10.8 5.6-5.7 10.3-12.5 18.6-14.5 2.6-0.6 5.2-0.5 7.8-0.5 1.1 0 3.1-0.4 4.1 0.1-5.9 3.9-12.4 6.7-18.1 11.1-4.7 3.6-8.7 6.3-9 12.4-0.2 3.7-1.5 7.1-2 10.7-0.5 4-0.1 8.3-0.1 12.3v6.2c0 4 1.1 6.8 2.8 10.4 2.1 4.1 3.9 8.6 7.2 12 0.6 0.6 1.4 1.3 2 2.2-1.3-5.7-0.5-29.3-0.5-32.1 0-9.8-0.3-19.8 7.6-27 1.7-1.5 10.8-6.6 12.1-2.8 0.6 1.7-1.4 4.5-1.8 6.1-0.3 1-0.4 2.3-0.6 3.4-0.9 4.4-2.2 8.8-2.8 13.2-0.6 4-1.4 7.7-2.7 11.5-2.3 6.8-4.6 13.8-5 20.9-0.2 3.2-1.1 6.8-3.2 9.3-1.4 1.7-4.2 2.1-6.3 2.5-4.6 0.8-9.4 1.3-13.5 3.6-1.4 0.8-2.4 1.8-3.4 3-2.2 2.7-4.7 5-6.3 8.2-1.5 3-3.4 6.1-4 9.4-0.6 2.8-0.6 5.5-0.9 8.4 0.6-1.5 1.4-3 2.1-4.5 0.5-0.8 0.9-1.7 1.3-2.6 1.2-1.8 2.8-1.4 4.3-2.4 1.3-0.8 3.4-2.7 5.3-2.7 0.7 1.9-0.5 4.4 0 6.3 0.2 0.8 0.4 1.3 0.8 1.6h-0.2c-2.5 0.7-4.6 0.9-6.8 2.2-3.2 2-6.6 2.7-8.8 6-1 1.5-1.8 3-2.9 4.4-1.3 1.6-3.5 2.9-4.5 4.7-0.7 1.3-1.9 5.4-1.4 6.7 2.9 0.9 5.3-1.3 7.6-2.7 3.3-2 7-3.3 10.8-3.5 3.6-0.1 7.3 0.1 10.9 0 2.6 0 5.1-0.2 7.6-0.6 0.9-0.1 2.5-0.5 3.5-0.1-0.4 1.9-5 3.5-6.5 4.4-2.1 1.2-2.2 3.5-3.2 5.7-1.5 3.2-3.7 6.8-6.9 8.3-2.2 1.1-4 1.6-5.9 3.3-3.4 3-7 6.4-9.4 10.2-0.8 1.6-1.7 3.1-2.7 4.5-1.6 2.9-2 6-2.2 9.3-0.3 4.5-0.9 9.2-0.8 13.7 0 3.5-0.6 7.5 0.1 10.9 0.7-1.4 1.2-2.8 1.5-4.4 1.6-4.7 3.7-9.2 5.5-13.8s2.6-10.7 5.7-14.7c0.9-1.2 2.4-1.6 3.8-1.9 2.6-0.5 3.8-1.5 6.2-2.7 3.5-1.8 7.7-2.6 11.5-3.5 1.6-0.4 3.1-0.8 4.8-0.9-2.5 0.2-5 1.5-7.1 2.7-3.4 1.9-7.1 4.1-10.1 6.7-2.1 1.8-2.1 2.4-2 5.1 0.2 1.2 0.1 2.4-0.2 3.6-0.4 0.6-0.5 1.2-0.4 1.8 1-0.3 2-0.8 2.9-1.5 3.3-1.8 6.9-2.8 10.6-3.8 2.4-0.6 5.3-1.9 6.6 1-1 1.4-3.1 0.8-4.6 0.9-2.6 0.2-4 2.1-5.4 4-1.3 1.8-2.5 3.4-2.8 5.7-0.2 1.9-0.7 6.4 0.7 7.7 1.1-0.3 2.3-0.2 3.4-0.2 1.5 0.1 3 0 4.5-0.2 0.8-0.3 1.6-0.5 2.4-0.5 3.2 1.7-1.1 12.7-1.8 15.2-2.3 8.3-5.6 16-9.7 23.7-1.8 3.2-2.1 7.2-4.1 10.2-1.3 1.9-4.2 3.4-4.4 5.9 0.5 0.4 3.7-2.2 3.7-2.3 1.7-1.1 3.7-2.3 5.6-3 1.7-0.6 3.4-0.1 5.1-0.6-1.7 1.2-3.5 4-4.6 5.6-2.8 4-4.9 8.4-7.6 12.4-2.3 3.5-4.5 6.1-5.6 10.3-0.4 1.4-1.9 5.2-0.5 6.5 2.8-1.4 4.9-3.7 7.7-5 1.2-0.6 4.4-1.9 6-1.5-1.4 2.3-3.5 4-5.3 5.9-2.1 2.1-4.8 3.9-6.8 6.1-4.7 5.2-5.7 13.8-5.7 20.5v18.3c0.9-5.1 2.5-10 4.5-14.9 2-4.3 4-8.6 5.9-12.9 1.5-3.9 2.2-8 3.8-11.8 2-4.6 6.1-7.9 9.6-11.4 1.3-1.4 2.8-2.6 4.5-3.6 1.1-0.7 3.7-3.1 5.2-3.3 0 4-1.7 7.8-3.2 11.4-3.1 7.7-6.4 14.7-8.1 22.9-1.1 5.2-2.5 10.6-2.5 15.9 0 3.4-0.4 6.5-0.8 9.9-0.4 2.6 0 5.4-0.5 8-0.3 1.9-1.8 3.5-2.2 5.4 1.5-0.5 2.6-1.5 3.5-2.9 3.6-3.7 6.6-8 8.9-12.6 4.6-9 3.9-19.4 5-29.2 0.3-2.5-0.1-6.6 1.3-8.9 0.9-1.5 2.7-2.8 3.9-4.2 1 8.1-0.5 16.6-1.1 24.7-0.4 5.4-0.4 11-0.9 16.4 1.3-5.5 2.6-11.4 5-16.5 2.6-5.4 4.2-10.4 10.7-11.8 1.7-0.4 3.6 0 5.2-0.9 1-0.5 1.8-1.5 2.8-2.1 2.4-1.4 3.4-2.1 6.1-2.1h10.1c2 0 4.1 0.3 6-0.2 1.5-0.3 2.5-0.6 4.1-0.5 5 0.1 9.9 0 14.9 0 3 0 6.1 0.2 9.1 0 2.4-0.1 4.6-0.7 7-0.7 3.7 0.1 7.4-0.6 11.1-0.7 1.5 0 2.8-0.3 4.3-0.5 0.8 0 1.5-0.1 2.3-0.1 1.8-0.1 3.4-0.7 4.9-1.7 1.3-0.5 2.6-0.7 4-0.6 2.7-0.3 4.7-1.7 7.1-2.8 4.7-2.2 7.5-5 8.7-10 0.5-2 1-4.1 1.6-6.1 7.7 9.8 16.9 0.2 16.9 0.2l1.1 6.9c-10.3 10.3-3.7 17 0 20.7s25.3 15.5 35.1 15.5 25.9-2.9 40.2-9.8c14.4-6.9 10.9-13.8 10.9-20.7s1.7-3.4 8.6-3.4c6 0 7.2 3.5 12.9-1 2.2 4 4.6 7.7 8.2 10.6 1.9 1.6 4.4 2.3 6.6 3.4-0.9 0-2.3-0.4-3 0.3-1 0.9 0 1.9 0.5 2.8 1.2 1.8 2.5 3.4 3.7 5.1 1.4 2.1 2.5 3.8 4.8 5.1 1.4 0.8 2.9 1.4 4.2 2.4 0.9 0.8 1.9 1.5 3 2 3.3 2 6.7 4 10.2 5.6 5.6 2.6 11.8 4.1 17.8 5.1 2.8 0.5 5.6 0.9 8.3 1.5 2.5 0.5 5 1.3 7.5 1.7 4.7 0.6 9.5 0.9 14.3 0.9h28.6 6.5c0.6 0 1.4-0.2 2 0.1 1.7 0.7 2 3.2 3.3 4.4 0.6 0.6 1.9 1 2.4 1.5 0.6 0.7 0.5 1.1 0.4 2.2v7c0 5.2 0 9.8 2.1 14.6 0.5 1.2 1.1 2.3 1.6 3.4-0.1-0.5-0.2-0.9-0.3-1.3-0.8-3.9-0.5-7.9-0.5-11.8 0-2.5-0.4-5.3 0.4-7.7 0.3-1 0.8-1.7 1.4-2.6 1.2-2.1 1.7-4.4 1.8-6.9 0-1.5 0.1-2.3 0.5-3.6 0.4-0.5 0.6-1 0.5-1.6 0.2-1.9 0.5-3.7 0.5-5.7 0-1.3-0.8-7.9 0.5-8.4 0.8 2.6 0.3 5.1 0.6 7.7 0.2 1.7 0.2 3.7 0.6 5.3 0.8 3 2.1 5.6 2.3 8.8 0.1 1.6 0.5 3.4 1.1 5 0.6 1.7 2.3 3.1 3.4 4.5 1.8 2.1 3.4 4.4 5 6.6 2.4 3.5 5 6.7 7.5 10.1 1.1 1.4 2.1 2.9 2.8 4.6 0 0.9 0.4 1.5 1.1 1.8 0.1-0.6-0.4-1.1-0.6-1.6-0.2-0.8-0.4-1.7-0.6-2.5-0.5-1.8-1.3-3.5-2.2-5.2 0-1.9 0.1-3.8-0.2-5.7-0.4-2.9-1.7-5.5-2.1-8.4-0.4-2.6-0.9-5.1-1.4-7.6-1-5.4-1.5-10.9-2.8-16.2-0.8-3.3-1.4-6.7-2.4-10-0.8-2.6-1.3-4.6-1.3-7.3 0.1-3.8 0.1-7.6 0-11.4 0-1.9 0.5-3.7 0.5-5.6 0.1-1.5-0.1-3.1-0.1-4.6 0.1-1.6 0.6-3.1 0.5-4.7v-6.2c0-0.9-0.6-6.9 0.4-7.1 0.2 0.9 0.8 1.6 1 2.5 0.4 1.4 0.1 3.2 0.1 4.6 0 7 0.4 14 1.4 20.9 0.4 2.7 0.4 5.3 0.7 8 0.2 1.9 0.7 3.7 0.9 5.5 0.2 1.4 0.8 2.7 1.1 4.1 0.3 1.5 1.1 2.6 1.8 3.9 0-2 0.1-3.9 0.1-5.8v-21.9-11.7c0-2.7 0.3-5.5-0.1-8.2-0.3-2.1-0.4-4.1-0.4-6.2 0-1.7-0.5-3.1-1-4.8 0-0.1-0.1-0.2-0.1-0.3 0.3 0.3 0.6 0.7 0.9 1 0.8 0.8 1.7 1.6 2.5 2.5 0.6 0.8 1.2 1.7 1.8 2.5 1 1.5 1.9 2.9 2.6 4.5 0.7 1.5 1.4 2.9 1.5 4.6 0.1 1.5 0.3 2.8 1 4.2 1 1.9 2 3.9 3.6 5.3 1 0.8 2.1 1.6 3.2 2.4 1.3 1 2.6 2.1 3.8 3.2 0.5 0.4 1.9 1.9 2.7 1.2 0.1-0.6-0.5-1-0.9-1.4-0.5-0.6-1-1.2-1.3-1.9-1.3-2.2-2.9-4.3-4.4-6.5-1.1-1.7-2.4-3.6-2.9-5.6-0.5-1.9-0.5-3.8-0.5-5.7 0-3.7 0.5-7.4 0.3-11-0.1-1.5-1.2-2.8-1.9-4.1-0.5-1.2-1-2.3-1.6-3.5-1-2.1-2.3-4.4-2.5-6.8 0.7-0.6 3.1 2.2 3.6 2.7 1.5 1.7 3 3.6 3.4 5.9 0.5 2.5 0.2 5 1.2 7.4 0.6 1.4 1.5 2.5 2.6 3.4 0.6 0.5 1.3 0.9 2 1.4 0.3 0.2 0.6 0.4 0.9 0.5 0.6 0.6 0.7 1.6 0.8 2.4 0.3 2.8 1.3 5.5 1.6 8.4 0.2 2.1 0.1 4.3 0.4 6.5 1.5-2.7 1.2-5.9 1.2-8.8s-0.8-5.5-1.5-8.3c-0.6-2.4-1.1-4.9-1.7-7.3-0.2-1.2-0.6-2.3-1-3.4-0.8-1.8-1.8-3.7-3-5.2-1.2-1.6-2.1-3.2-3-5-1.2-2.4-2.7-4.8-4.2-7.1s-3.1-4.3-4.4-6.7c-1-1.9-0.7-3.8-0.7-5.9s0.1-4.1-0.2-6.2c-0.3-2.3-1-4.4-1.7-6.5-0.4-1.4-1-2.8-1.1-4.2v-3-0.9c0.3 2.9 0.9 5.8 2.2 8.7 1.5 3.3 3.2 6.6 5 9.9 0.4 1.1 0.9 2.1 1.2 3.2 0.4 1.1 0.6 2.3 0.9 3.4 0.5 1.9 1 4.1 1.8 5.9 0.3 0.6 0.5 0.9 1 1.4 0 0 1 1.1 1.2 1.1-1.2-1.1-1.4-2.8-1.7-4.3-0.4-1.7-0.7-3.4-1.1-5.1 1.7 2.6 3.5 5.2 5.4 7.6 0.9-3.2-1-8.2-2-11.3-1.4-4.6-1.5-9-1.4-13.8 0.1-3.8 0.7-7.5 0.7-11.3 0-1-0.5-3.8 0.1-4.9 0.4-0.7 1.4-0.7 1.7-1.4 0.5-0.9 0.1-3.1 0.1-4.1 0-4.6 0.2-9.1-1.5-13.5-0.7-1.9-5.2-4.7-4.3-6.2 1.4-2.4 5.7 0.5 7 1.2 4.8 2.5 8.7 8.3 11.6 12.7 2.2 3.5 4.5 7 6.7 10.4-0.3-3.5 0-7-0.9-10.4-0.9-3.6-4.4-7-6.8-9.6-1.8-2-3.7-4-6.1-5.1-1.1-0.5-1.8-0.4-2.9-0.7-6.4-1.6-10.9-6.5-14.4-11.7-2.4-3.5-3.7-8.2-2.8-12.4 0.4-2 0.5-3.7 0.5-5.8 0-4.6-1.4-27.2 3.3-26.5 0.8 1.6 0.7 2.9 0.9 4.7 0.4 3.4 0.6 6.1 2.1 9.3 1.2 2.5 2.3 5.2 3.1 7.9 0.2-4.5 0.6-8.9 0.6-13.4 0-1.8-0.4-3.2 0.6-4.7 0.6-0.4 1-0.9 1.4-1.4 0.9-1.5 0.6-3 0.6-4.7v-8.2c0-1.1-0.7-5.6 0.5-6.4 0 2.3 2.5 3.4 2.9 5.6 0.3 1.4 0 2.2 0.5 3.7 0.5 1.3 1 2.6 1.4 4 0.5 1.8 0.9 3.6 1.1 5.6 0.1-0.6 0.2-1.3 0.2-2 0-1.8-0.1-3.6-0.1-5.4 0-5.4 0.2-10.6-1.1-15.9-1.2-4.8-4.7-8.9-5.2-13.9 0.6-0.5 4.6 1.7 5.1 2 2.3 1.3 3.9 3.2 6.3 4.4 1.7-0.9-0.1-6.3-2.3-9.3 1.2 0.7 2.5 1.2 3.6 2 3 2.1 6.7 4.2 9 7.1 0.9 1.2 1.4 2.7 1.7 4.2 0.1-3.8 0.3-7.6 0.3-11.3v-9.8c0-2.7-0.1-5.9-2-8.1-2.4-2.8-5.9-3.9-6.6-8-0.7-4 1.2-3 4.2-3.5-2-3.3-5-5.6-8-8.1-1.2-1-2.5-2.6-4.1-3.1 0.5 0.1 1.1 0.3 1.7 0.4 1.4 0.2 2.7 0.2 4.1 0.1 1.5 0 3-0.1 4.5 0 4.6 0.2 7.8 5.3 10.2 8.7 1.5 2.2 2.2 4.6 3.4 6.9 1.2 2.2 2.8 4.1 3.6 6.5 0.7 2.1 0.8 4.1 1.7 6.2 1.1 2.6 3.2 4.2 4.7 6.5 0.8 1.1 1.1 2.4 1.8 3.5 0.9 0.9 1.4 2 1.6 3.3 0.8 5.1 1.1 10 1.2 15.1 0.1 2.4 0.3 5.1 0.7 7.5 0.4 2.3 1 4.9 1.6 7.2 0.2 0.7 0.3 1.8 0.6 2.5 0.6 1 1.2 2 1.6 3 0.8 2.5 0.3 5.8 0.3 8.5v12.6c0.2-1.5 1.2-2.9 1.3-4.5 0.2-2.6 0.7-4.9 0.7-7.5 0-7.6 0.3-15.2-0.8-22.7-0.5-3.5-1.9-6.6-2.7-10-0.7-3.1-1.8-5.9-3.2-8.7-0.6-1.3-0.7-2.2-1.2-3.6-0.9-2.9-2.8-5.2-3.5-8.1-0.5-2-0.6-3.4-1.6-5.1-1.6-2.6-2.6-5-3.6-7.8-0.5-1.5-1.3-2.5-1.9-3.9-1.5-3.4-1.1-7.6-1.6-11.2-0.4-2.3-0.3-4.5-0.6-6.8-0.4-3.2-1.1-6.3-2-9.4-0.5-1.8-1.4-3.7-3-4.6-0.5-0.3-1-0.6-1.6-0.8 0.3 0 0.5 0 0.8-0.1-0.7-1.4-1.4-2.4-1.3-4.1 0.1-1.5 1.1-2.4 2.1-3.4s0.8-2.5 0.3-3.7c-0.1-0.2-0.2-0.5-0.3-0.7 1.3-1.4 2.5-2.8 3.7-4.2 1 0.4 1.9 0.9 2.9 1.3 2 1 4 2.2 5.9 3.5 4.4 3.2 8 7.3 12.4 10.5 1.8 1.4 3.7 2.7 5.5 4.1 0.6 0.5 1.2 0.8 1.8 1.1-0.3-0.7-1.2-1.5-1.8-2.2-0.4-0.5-0.9-0.9-1.2-1.6-0.2-0.6-0.5-1.2-0.7-1.7-0.6-1.3-1.3-2.6-1.5-4.1v-2.5c0-1.4-0.1-2.9 0.1-4.3 0.1-1 0.2-2 0.2-3 0-2.3-0.1-4.8-0.4-7-0.4-3.1-1.4-6.1-2.6-8.9-0.5-1.1-1-2.2-1.5-3.2-0.4-0.3-0.5-0.6-0.4-0.9 1.4 1 2.8 2.7 4.6 2.6 0.2-0.5 0-1.1 0-1.6v-5.1c0-2.4 0.1-4.8-0.2-7.1v-0.3c2.6-3.3 5.2-6.4 8-9.4 0.3 0.1 0.7 0.3 1 0.5 1 0.6 1.9 1.2 2.7 2 0.6 0.7 0.7 1 1.1 1.8 0.5 1.1 1.5 2.1 2.2 3.1 0.5 0.7 1 1.4 1.5 2 2 2.4 4.3 4.7 5.9 7.3 1.3 2.1 2.3 4.5 3.4 6.8 0.5 1.1 1 2.1 1.4 3.2v-0.1c0-2.1 0.1-4.2-0.2-6.4-0.3-2-1-3.7-1.3-5.7-0.2-1.3-1-2.6-1.4-3.9-0.5-1.6-1.1-3.2-1.8-4.8-1.4-3-2.9-5.9-4.4-8.8-0.8-1.6-1.8-3.1-3.1-4.3-0.1-0.2-0.3-0.4-0.5-0.6 1 0.3 2.1 0.2 3 0.6 1.3 0.5 2.5 1.5 3.7 2.3 1.1 0.8 2 1.6 2.9 2.6 1.5 1.5 3 3.1 4.3 4.9v-4c-0.3-0.2-0.5-0.4-0.8-0.6-4.1-3.6-8.6-6.8-13.7-8.6-0.1-0.4-0.2-0.8-0.4-1.2 1.6 0.1 3.1 0.2 4.7 0.4 3.4 0.6 6.8 1.3 10.2 1.8v-8.2h-5c-2.6 0-5.1-0.3-7.7-0.3-2.4 0.1-4.8 0.7-7.2 1.2h-0.1c-5.1-3.3-13.4-6.2-23-8.8 0.1 0 0.2-0.1 0.3-0.1 4.4-0.8 8.3-3.5 12.8-4.2zm-478 181.3c-0.5 1.3-0.1 2.9-0.1 4.2 0 2.8-0.7 5.4-0.7 8.2 0 3.1-0.9 2.5-3.9 2.8-3.2 0.3-6.4 1-9.5 1.4-0.7 0.1-1.4 0.2-2.1 0.2-0.1-0.9-0.2-1.9-0.2-2.6 0-3.7-0.9-7.7 1.4-10.9 2.7-3.6 6.7-3.9 10.9-4.8 1.6-0.3 3.6-1 5.2-0.5-0.2 0.8-0.7 1.3-1 2zm402.9 213.2c0 1.2 0.1 2.4 0.5 3.6 0.3 0.5 0.5 1.1 0.8 1.6 0.4 1 0.5 2 0.5 3 0.2 3 1 5.8 2 8.6 1.7 5.1 3.7 10.3 4.9 15.6 0.3 1.4 0.4 2.7 0.5 4.1-0.7-1.3-1.4-2.5-2-3.7-1.6-3.2-3.6-6.5-5.9-9.3-2.5-3-4.6-5.7-6.1-9.4-2.5-6-3.6-12.5-4.4-19-0.5-3.8-0.1-7.9-0.1-11.7 0-2.6 0-5.1 0.4-7.6-0.1-0.8 0.1-1.5 0.5-2.2 0.6 0.8 0.6 2.1 0.7 3 0.2 1.4 0.5 2.7 0.9 4.1 0.5 2.2 1 4.4 1.4 6.7 0.1 1.5 0.5 2.8 1.2 4 1.4 2.7 3.7 5.5 4.2 8.6zm100.4-305.2c-1.1 1.8-2 3.7-3.3 5.3-1.4 1.7-3.2 3.3-5 4.5-1.2 0.7-2.4 1.4-3.7 2-2.5 1.4-5 2.4-7.7 3.3-2.4 0.9-5 1.1-7.6 1h-10.6c-1.2 0-2.7-0.3-3.8 0 2 1.9 4.7 2.9 7.2 3.8 3.6 1.3 7.2 0.9 11 1 1.5 0 2.9 0.1 4.4-0.2 0.8-0.2 1.7-0.4 2.5-0.7 0.8-0.2 1.6-0.1 2.4-0.3 0.5-0.2 1.1-0.4 1.6-0.6 1.2-0.4 2.2-0.9 3.1-1.7 1.2-0.9 2.5-1.7 3.7-2.6 2.8-2 5-5.2 6.8-8.1 1.3-2 2.4-4.6 2.5-7 0.1-1.8 0-3.7 0-5.5v-0.7c-0.3 0.7-0.6 1.4-0.9 2.1-0.7 1.6-1.7 3-2.6 4.4zm-295.1-90c0.5-0.8 1-1.7 0.9-2.6-0.9 1.8-1.7 3.5-3 5-1 1.2-2.1 2.4-3.2 3.6 0.5-0.3 0.9-0.5 1.4-0.9 1.7-1.4 2.8-3.2 3.9-5.1zm298.6 83.6c0.4-1 0.8-2.1 1.1-3.2v-19.1c-0.3-1.1-0.7-2.1-1.1-3.2v9.7 15.8zm-538.4 36.6c0-1.8 0.1-3.5 0.1-5.3-0.1 1.7-0.2 3.5-0.1 5.3zm223.7-138.8c-0.3 1.6-0.7 3.1-1.1 4.7 0.1-0.1 0.1-0.3 0.2-0.4 0.6-1.4 0.7-2.8 0.9-4.3zm-195.9 186.2c-0.1-0.4-0.4-0.8-0.7-1.3 0.2 0.8 0.5 1.3 0.7 1.3zm191.2-210.8v2.8c0.1-1 0-1.9 0-2.8z"/> <path class="st3" d="m222.9 592.9c0-0.6 0.1-2.1 0.1-3.8v-0.1c-0.4 1.1-0.1 2.7-0.1 3.9zm22.7-9c0.1 2.6 2 4.5 3 6.8-0.7-2.3-1-4.8-1.6-7.1-0.4-1.6-0.9-3.1-1.3-4.7-0.2 1.6-0.1 3.4-0.1 5zm309.2 5.1v0.1c0 1.7 0.1 3.2 0.1 3.8 0-1.2 0.3-2.8-0.1-3.9zm15.5 3c-1.4-3.2-1.8-5.6-1.8-9v-8.2c0-2.1 0.3-3.9 0.6-6 0.4-2.9 0.3-5.7 0.3-8.5v-5.3c0.1-5.2-2.9-9.5-3.9-14.4-0.3-1.5-0.2-3-0.6-4.5-0.5-1.8-0.2-3.5-0.5-5.3-0.2-0.8-0.5-1.6-0.8-2.3-0.3-1.2-0.6-2.5-0.9-3.7-1.6-3.8-5.5-6.1-7.3-9.7 0.7-0.5 3.9 1.1 4.7 1.3 1.1 0.2 1 0.3 1.6 0.9 1.7 1.7 3.8 2.9 5.9 4.1-0.1 0 2.8 1.8 3.2 1.6-2-1.6-2.1-4.8-3.8-6.5-1.1-1.1-2-1.5-2.9-2.9-1-1.6-2-2.5-3.4-3.7-0.7-0.8-1.6-1.4-2.6-1.8-0.7-0.2-1.2-0.6-1.6-1.2-0.4-0.1-0.8 0-1.2 0-0.5-0.1-0.6-0.3-0.9-0.3-1.6-0.5-3.3-0.6-5-0.6-1.5 0-2.7 0-4.2-0.3-0.9-0.2-1.8-0.5-2.8-0.6-1.7-0.2-3.5 0-5.2 0-1.2 0-2 0.3-3.1 0.6-2.7 0.6-5 1.3-7.8 1.3 0.9-0.2 1.5-0.4 2.5-0.5 0.7 0 1.8 0 2-0.9-0.5-0.8-2-1.2-2.8-1.4-3.2-0.5-6.9 0.8-10.1-0.1 0.5-1.1 2.2-0.8 3.1-0.9 1.5-0.2 5.9-0.7 6.2-2.7-0.5-0.5-1.2-0.7-2.1-0.6-2.3-0.4-4.6-0.8-6.9-1.4-2.2-0.6-4.7-1.1-6.8-2.1 0-0.9 2.2-1.1 1.8-2.1-0.3-0.8-4.7-1-4.8-1-1.6-0.2-3.5-0.5-5.2-0.5-4.2-1.1-8.1-1.4-12.5-1.4-3 0-6.7 0.5-9.7 0 0.2-0.5 0.4-1.1 0.3-1.7-2.5-0.8-4.9-1.1-6.9-2.9 0.7-1.3 3.3-1.1 4.4-2.2-1.1-1.6-4.1-1.2-4.8-3 0.8-1.1 1.7-2 2.8-2.8 1.3-0.9 3.7-2 3.6-3.9-0.2-0.2-0.5-0.3-0.7-0.3 1.2-1.3 3.1-1.3 4.7-1.8 1.8-0.6 4.2-1.8 5.6-3.2-1.4-0.7-3.9 1.4-5.3 1.7-3.3 0.7-6.7 0.6-10 1.4-2.6 0.6-5.1 1.6-7.7 2.2-1.2 0.3-2.6 0.3-3.3 1.5l-74.9 6.2-74.9-6.2c-0.8-1.2-2.1-1.2-3.3-1.5-2.6-0.6-5.1-1.6-7.7-2.2-3.3-0.8-6.7-0.7-10-1.4-1.4-0.3-3.9-2.4-5.3-1.7 1.4 1.4 3.7 2.6 5.6 3.2 1.6 0.5 3.5 0.5 4.7 1.8-0.3 0-0.5 0.1-0.7 0.3-0.2 1.9 2.3 3.1 3.6 3.9 1.1 0.8 2.1 1.7 2.8 2.8-0.7 1.8-3.8 1.3-4.8 3 1.1 1.1 3.7 0.9 4.4 2.2-2.1 1.8-4.4 2.1-6.9 2.9-0.1 0.6 0.1 1.1 0.3 1.7-3 0.6-6.7 0.1-9.7 0-4.4 0-8.2 0.3-12.5 1.4-1.7 0-3.6 0.2-5.2 0.5-0.1 0-4.5 0.2-4.8 1-0.4 1 1.8 1.3 1.8 2.1-2.1 1-4.5 1.5-6.8 2.1s-4.6 1-6.9 1.4c-0.8-0.1-1.5 0.1-2.1 0.6 0.3 1.9 4.8 2.5 6.2 2.7 0.9 0.1 2.7-0.2 3.1 0.9-3.2 0.9-6.9-0.5-10.1 0.1-0.8 0.1-2.4 0.6-2.8 1.4 0.2 0.9 1.2 0.9 2 0.9 1 0.1 1.6 0.2 2.5 0.5-2.8 0-5.2-0.7-7.8-1.3-1.1-0.3-1.9-0.6-3.1-0.6-1.7 0-3.5-0.2-5.2 0-0.9 0.1-1.9 0.4-2.8 0.6-1.5 0.3-2.7 0.3-4.2 0.3-1.7 0-3.4 0.1-5 0.6-0.3 0.1-0.4 0.3-0.9 0.3-0.4 0.1-0.8-0.1-1.2 0-0.4 0.5-0.9 0.9-1.6 1.2-1 0.4-1.8 1-2.6 1.8-1.4 1.2-2.5 2.1-3.4 3.7-0.8 1.3-1.8 1.8-2.9 2.9-1.8 1.7-1.8 4.9-3.8 6.5 0.4 0.2 3.3-1.7 3.2-1.6 2.1-1.2 4.2-2.4 5.9-4.1 0.7-0.7 0.6-0.7 1.6-0.9 0.8-0.2 4-1.8 4.7-1.3-1.8 3.7-5.7 5.9-7.3 9.7-0.4 1.2-0.7 2.5-0.9 3.7-0.4 0.7-0.6 1.5-0.8 2.3-0.3 1.8 0 3.5-0.5 5.3-0.4 1.5-0.3 3-0.6 4.5-1.1 5-4 9.2-3.9 14.4v5.3c0 2.9 0 5.7 0.3 8.5 0.3 2.1 0.6 3.9 0.6 6v8.2c0.1 3.4-0.4 5.9-1.7 9-0.5 1.1-0.7 2.2-0.9 3.3h3.5c0.5-0.9 1.1-1.8 1.6-2.7 2-3.2 4.4-6.5 5.7-10.1-0.1 0.2 0.5-2.5 0.7-2.6 0.6 0.9 0.8 1.9 0.7 2.9 0.1 1.1-0.2 3.1 0.6 4 1.1-1.3 1.8-2.7 2.2-4.4 1.3 0.1 1.5 3.7 1.4 6.7 0.5 1.9 0.3 3.8 0.3 5.7v0.4h10.5c0.3-0.5 0.5-0.9 0.8-1.4 1.6-3 1-6.6 1-9.9v-19-12.7c0-3.8-0.2-8.3 1.8-11.7 2.1-3.3 5.8-4.5 9.3-5.5 1.8-0.5 3.6-0.8 5.5-1.1 0.9-0.2 1.3-0.4 2.1-0.8-3.6 4.7-6.5 10-9.2 15.2-1 1.7-1.8 3.5-2.5 5.4-0.6 2.3-0.2 4.8-0.2 7.1v4.5c-0.1 2.7 0.3 4.6 1.2 7.2 0.7 2.1 1.4 4.2 2 6.3 0.1-0.7 0.2-1.3 0.4-1.9 0.8-2.6 2.9-4.2 5-5.6 1.1-0.7 2.4-1.3 3.3-2.2-2.2 2.6-3.3 5.5-3.6 9-0.4 5.5-0.4 11.8 1.2 17.2h15.6v-3.3c0-2 0.3-3.7 1-5.6 0.4-1 1.1-3.4 2.1-4.1 0.6 2.6 0.5 5.2 0.5 7.8 0 1.7 0.2 3.4 0.3 5.1h3.3v-5.5c0-2.4 0.1-3.8 1.1-6 0.4-0.8 0.5-2.1 1.2-2.7 1.1 0.3 0.9 4.1 0.9 5 0.1 2.6-0.2 5.3 0 7.9 0 0.4 0.1 0.8 0.1 1.2h221.6c0.1-0.4 0.1-0.8 0.1-1.2 0.2-2.6-0.1-5.3 0-7.9 0-0.9-0.1-4.7 0.9-5 0.7 0.6 0.9 1.9 1.2 2.7 1 2.2 1.1 3.5 1.1 6v5.5h3.3c0.1-1.7 0.3-3.4 0.3-5.1 0-2.6-0.1-5.2 0.5-7.8 1 0.7 1.7 3 2.1 4.1 0.7 1.8 1 3.6 1 5.6v3.3h15.6c1.6-5.4 1.6-11.6 1.2-17.2-0.3-3.4-1.4-6.4-3.6-9 0.9 0.9 2.2 1.5 3.3 2.2 2.1 1.4 4.3 3 5 5.6 0.2 0.6 0.3 1.2 0.4 1.9 0.6-2.1 1.3-4.2 2-6.3 0.9-2.6 1.3-4.4 1.2-7.2v-4.5c0-2.3 0.4-4.9-0.2-7.1-0.7-1.9 0.3 0-0.7-1.7-2.8-5.2 8.1 2.5 4.6-2.1 0.9 0.4-0.5-4.1 0.4-3.9 1.9 0.3-0.6 2.7 1.3 3.2 3.5 0.9-0.7-2.1 1.4 1.3s0.1 4.1 0.1 7.9v6.6 19c0 3.4-0.6 6.9 1 9.9 0.2 0.5 0.5 0.9 0.8 1.4h10.5v-0.4c0-1.9-0.1-3.9 0.3-5.7-0.1-3 0.1-6.6 1.4-6.7 0.4 1.7 1.2 3 2.2 4.4 0.8-0.9 0.5-2.9 0.6-4-0.1-1.1 0.2-2.1 0.7-2.9 0.2 0.1 0.8 2.8 0.7 2.6 1.2 3.6 3.7 6.9 5.7 10.1 0.6 0.9 1.1 1.8 1.6 2.7h3.5c0.1-1.2-0.2-2.2-0.7-3.4zm-41-1.3c1-2.3 2.9-4.2 3-6.8 0.1-1.6 0.1-3.4-0.1-5-0.5 1.6-0.9 3.1-1.3 4.7-0.7 2.3-1 4.8-1.6 7.1z"/> <path class="st4" d="m470.8 487.7c-3.6-1.4-8.4 2.9-11.1 4.5-3.8 2.3-7.9 4.5-12.2 5.7-5.7 1.7-9.7 5.9-14.5 9-5.6 3.7-11.8 7.2-17.7 10.4-10.8 5.8-23.1 5.2-34.5 9.1-7.6 2.6-15.8 2.7-23.7 2.7-3.8 0-7.5 0.6-11.3 0.7-1.3 0-2.3-0.2-2.7 1.2-0.3 1.1 0 2.7 0 3.9v3.2c-0.7-0.9-1.4-1.9-2.1-2.9-0.5-0.7-1-1.6-1.4-2.3-0.9-1.6-1-3.3-2.1-4.8-1.5-2.2-2.4-3.4-2.5-6.3-0.1-3.6-1.5-6.5-2.3-9.9-0.3-1.2-0.2-2-0.7-3.3-0.4-0.9-0.9-1.9-1.3-2.8-1-2-2.8-3.5-4.7-4.6-4.2-2.3-7.4-4.2-10.6-7.4-0.5-0.5-1-0.9-1.5-1.3-0.6-0.5-1.3-0.7-1.9-1.1-0.8-0.5 0.6-6 0.4-6.9l-3.2-9.9c-2.1-0.6-4.2-1.3-6.3-1.8-3.3-0.8-6.7-0.7-10-1.4-1.4-0.3-3.9-2.4-5.3-1.7 1.4 1.4 3.7 2.6 5.6 3.2 1.6 0.5 3.5 0.5 4.7 1.8-0.3 0-0.5 0.1-0.7 0.3-0.2 1.9 2.3 3.1 3.6 3.9 1.1 0.8 2.1 1.7 2.8 2.8-0.7 1.8-3.8 1.3-4.8 3 1.1 1.1 3.7 0.9 4.4 2.2-2.1 1.8-4.4 2.1-6.9 2.9v0.7c0.1 0.2 0.1 0.3 0.1 0.3 0.1 0.2 0.1 0.4 0.2 0.6-0.4 0.1-0.7 0.1-1.1 0.2h-0.6-0.6-0.8-0.3-1.1c-0.4 0.1-0.9 0.3-1.2 0.5-1.3 0.7-0.9 0.9-1.6 2.4-0.4 1.2-1.1 2.2-2 3-0.8 0-1.2 0.3-1.3 0.9 1.5-0.1 3.1-0.2 4.6 0 0.4 1.4-2.9 3.8-3.6 4.5-2.3 2.2-4.8 3.8-7.4 5.7-2.7 2.1-5.6 4.6-6.9 7.9-0.6 1.4-0.8 3-1.4 4.4 3.1 0.3 6.9-3.4 9.7-4.5 0.7-0.3 4.3-2.2 4.9-1.3-2.4 4-5.4 7.6-8.1 11.5-1.9 2.8-2.5 4.6-3.1 7.6 2.8-3.6 8.3-6.1 12.3-8.1 2 1.3 1.8 3-0.6 5.2-2.1 3.9-4.4 7.7-6.9 11.3-1.4 2.1-6.3 7.6-5.2 10.6 4.6-0.8 8.2-7.4 10.9-10.8 1.1-1.4 2.3-2.7 3.5-4 0.5-0.8 0.4-1.5 1.2-2 1.3 3.7-0.7 7.8-1.8 11.2-0.9 3.1-1.4 6-1 9.1 1.1-0.3 1.8-1 2.2-2.2 1.7-2.4 3.6-4.6 5.7-6.7 3.4-3.2 7.8-6.9 12-9.1 1.1 2.3 0.1 5.6-0.4 8-0.8 3.5-1.5 6.7-1.6 10.3s-0.1 7.3 0 10.8c0 1.5-0.2 4.8 1.4 5.8 0.4-2.6 1-5.1 1.4-7.7 0.6-3.3 2.7-6 3.3-9.2-0.3 6.3-0.1 12.7 0.4 19.1 0.3 3.7 0.7 6.6 3.3 9.3-0.2-2.6-0.4-5.6 0-8.2 0.6-3.9 2.8-7.1 4.5-10.5 2.3 1.3 0.5 7.3 2.2 9.5 1.8-2.8 0.2-6.4 0.8-9.4 1.5 0 2.7 6.2 2.8 6.5 0.7 2.7 0.9 4.9 0.9 7.6v-6.8c0-1.1-0.4-4 0.1-5.3 0.7 0.8 1 1.8 0.8 3 0.6 4.3 1 8.7 2.2 12.9 0.7 2.5 2.2 6.8 4.9 8 1.4 0.6 1.4 0.8 1.8-0.5 0.6-2.1-0.1-4.8-0.6-6.7-0.3-1.1 0-2.3-0.3-3.4 1.8 4.9 4.3 9.2 7.4 13.3h9c-0.6-1.3-1-2.7-1.4-4.2-0.7-3.1-1.3-6.5-1.4-9.7 0-0.6-0.4-2.9 0.2-3.5 3.4 1.9 5.9 5.5 7.8 8.8 0.7 1.8 1.7 3.4 2.8 4.9 1.7 2 3.5 2.8 5.6 3.7h8.9c-0.6-1-1.1-2.2-1.6-3.1-3-4.9-5.9-10.5-4.8-16.5 3.4-0.5 6.7 5.8 9.4 7.7 0.3-2.3-4-5.3-5.4-6.9-1.7-2-4-4-5.4-6.3-0.2-0.3-0.3-0.5-0.5-0.8 0.8-1.1 0.8-2.4 1.4-3.5 2.7-0.8 3 6.1 3.4 7.8 1.2 0.5 1.8-0.5 2.9-0.7 2.3-0.4 2.7 1.7 3.6 3.3 2.9-0.1 1.3-4.5 3.1-5.5 1.9 1.4 0.9 4.2 1.5 6.1 0.2 0.8 0.7 1.7 1.7 1.3 0.5-2.7 0-3.7 3.3-3.1 2.2 0.4 4.8 2.4 7.1 1.8 0.3-1.4-0.7-4.5 1.3-5.1 1.1-0.3 1.7 1.1 2.8 0.5 1.2-0.7 1.1-2.9 1.6-4 0.8-2.1 1.2-1.9 2.8-0.4 0.8 0.8 3.4 2.6 3.4 0.1 1.1 0.3 1.3 1.8 2.8 1.2 2.4-1 0.9-7.4 3.5-7.1 1.3 1.9 1.9 4 3.2 5.9 2.4-0.3-0.8-6.4 1.3-6.6 1.2 1.2 1.3 5.8 3.8 4.6 2.3-1.1 0-6.4 3.6-5.8 1.7 0.3 3.2 2.7 4.9 2.7 2.9 0 2.3-7.9 2.7-9.9 1.9-0.6 0.6 2.7 2.5 2 0.8-2.7 0.7-5.3 0.6-8.1 0-0.5-0.5-4.2 0.1-4.8 1.4-1.8 4 0.7 5.8 0.6 0.9-1.2 0.3-2.5 0.7-3.8 0.5-1.8 0.7-0.6 1.7-1.2 2.2-1.2 2.4-3.2 3-5.5 0.8-3.4 1.3-6.9 2.4-10.2 1.7 0 2.7 0.1 4.3-0.6 1.3-0.6 1-0.5 2.4-0.6 1.6-0.1 2.5-0.7 3.9-1.4 1.7-0.9 2.6-1.1 3-3 0.2-0.8-0.1-2-0.1-2.8 0-2.2 0.2-5.1 1.1-7.1 0.6-1.4 1.8-2.6 2.6-3.9 0.7-1.1 1.8-1.9 2.8-2.9 2.9-2.7 3-8 2.8-11.8z"/> <path class="st1" d="m405.4 309.7c0-2.8-0.2-5.3-0.7-8-0.7-3.6-1.7-9-0.6-12.7 1 0 2 0.5 2.8 1.2-0.6-1.2-6.1-10.4-3.7-11.1 0.7-3.3-0.4-6.7 0.3-9.9 0.6-0.2 1.1 0.3 1.3 0.8-0.5-3-1-5.4-0.2-8.4 1-3.9 0.2-8.9 0.1-12.9 0-2.9-0.4-5.6 1-8.2 0.9 0.3 0.9 1.6 1.2 2.4 1.2-0.4 0-2.2 0.6-3 0.6 1 0.7 4.1 1.8 4.6 0.7-2.7-0.3-5.6 0.2-8.4 0.4-0.3 0.8-0.3 1.3-0.2 1.3-3.6-0.2-7.4 0.7-11 0.7 0.1 1.2 0.7 1.9 1 2.4-1.4 1-6.5 1.4-8.8 0.5-2.8 3.3-6.1 5.1-8.2 3.2-3.8 7.8-7.3 9.5-12.1 0.9-2.6 1-7.1 3.3-8.8 1.3-0.7 2.5-1.3 3.9-1.8 2.7-1.2 5.4-2.8 7.8-4.4 1.6-1 2.3-1.5 4.3-1.6 3.9-0.1 8.5-0.7 12.4 0.1 1.6 4 5.6 5.4 9.7 5.9 2.1 0 4.1 0.3 6.1 0.8 1.5 0.3 3.9 0.3 5.3 0.8 4.5 1.6 7.5 6.6 12.1 7.8 0.6 0 1.1 0.1 1.7 0.2 1.3 0.4 2.9 2 4 2.7 2.6 1.7 5.8 3.5 8 5.7 1.2 1.3 2.6 3.4 3.4 5 0.9 1.7 0.8 5.9 2.6 6.8-1 0.1-1.6-0.8-2.5-1.3 1.1 1.9 3.5 2.7 5.2 3.8 2.6 1.6 4.8 3.5 7.1 5.4 1.6 1.3 5.1 3.2 5.4 5.5-1.2 1.3-6.2 0-7.9 0.2-0.6 1.4 2.4 4.4 3.1 5.3 1.1 1.5 2 2.9 3 4.4-1.2-0.1-5.7-2.1-6.6-0.7 1.1 1.7 3.2 2 4.4 3.9 0.8 1.3 1.4 3.3 2.8 4.1-1 2.1-10.5-1.6-12.7-0.5 0.6 1.8 1.9 3.5 2.7 5.3 0.7 1.6 1 3.3 1.7 4.9-3.7 0 3.1 12.2 1.4 14-1.7-1-3.1-2.3-4.8-3.2 0.1 4.1 3.2 6.8 4.1 10.7 0.5 2 0.4 4.5 0 6.4-0.5 0.1-0.7 0.4-0.6 1v5.8c0 0.6 0.7 6.1-0.3 6.6-3.5-1.3-3.9-3.7-5.8-6.6-0.6 1.2-0.8 2.6-0.7 4 0 1.5 0.7 2.6 0.7 4-1.1 0-1.9-0.9-3.2-0.7-0.4 2.2 0.3 4.5-0.2 6.8-2.9 1-6.1-3-9.1-2.7-0.3 0.8-0.4 1.6-0.1 2.4-0.1 1.9 0.3 1.1-1.3 1.1-2.8 0-1.4 0.2-2.1 2.4-1.5 0.5-2.8-0.9-4.1-0.5-0.9 2 0.6 3.3 0.9 5.2-3.9 0.5-8.3-0.8-12.1 0.1 0 0.5 0.3 1.5 0.1 1.9-0.6 1.5-5.5 0.5-6.7 0.6-1.8 0-3-0.2-3.5 1.6-0.4 1.6 0.2 3.8 1 5.2-1.5 1.1-4.5 0.5-6.3 0.9-1.5 0.3-4.3 1-5.2 2.5s0.8 2.1-1.6 2.5c-1.8 0.4-3.3 0.2-4.3 2.4-0.8 1.7-0.2 3.9 0.5 5.5 1 2.3 0.7 2.3-1.5 4-0.3 0.2-6.2 3.9-6 4.8 0.5 2.1 5.6 2.1 7.2 2.4 2.7 0.5 1.1 0 1.6 1.4 0.4 1.2 0 2.5 0.6 3.8 0.7 1.6 2.8 3 1.9 5-0.4 1-1 1-1.3 2.2-0.4 1.7 0.1 4.1 1.2 5.5 1 1.4 2.6 2 3 3.8 0.4 1.4-0.5 3 0 4.4 0.2 0.4 0.9 0.8 1.1 1.4 0.3 0.9 0.1 1.9 0.1 2.8 0 0.7-0.1 1.3 0.1 2 0.3 0.8 1 1.1 1.3 1.9 0.5 1.5-0.2 3.6 0.1 5.3 0.1 0.7 0.5 0.6 0.5 1.7 0.1 1.3-0.4 3.2 0.1 4.4 0.2 0.6 0.9 1.4 1.2 2s0.9 1 1.2 1.5c0.6 1 0.1 3.2 0.1 4.4 0 2-0.5 4.1 0.4 6.1 0.6 1.4 1.9 2 2.3 3.3 0.3 1-0.4 2.4-0.1 3.5 0.2 0.9 1 1.7 1.2 2.7 0.7 3-0.3 6.2 0.3 9.3 0.5 2.8 7.2 5.4 7.2 8.3 0 2.8 0.8 22.7 0.4 25.4-0.3 2-7.5-0.9-8.5 0.8-0.5 0.8-2.9-9.3-3.7-8.7-1.6 1.3-3.6 0.8-5.4 0.8-3.2 0-6.9 0.5-9.9-0.5-6.6-2-7.7-8.8-8.9-14.5-0.9-4.5-1.2-9-1.5-13.6-0.4-7.3-1.2-14.6-1.7-21.9-0.8-11.2 1.2-22.9-2.1-33.8-0.6-2-1.1-4-2.2-5.8-1.4-2-3.4-3.9-5-5.7-1.6-1.9-3-2.5-4.9-3.9-3.5-2.6-5.6-7.4-8.3-10.8-2.5-3.1-5.2-6.2-7.2-9.7-1.3-2.3-2.1-4.6-3.5-6.8-1.1-1.7-2.4-3.3-3.5-4.9-0.6-0.8-0.4-1.3-0.8-2.2-0.2-0.5-0.9-1-1.1-1.4-0.2-0.7 0.1-1.2-0.1-1.9-0.2-0.9-0.7-0.9-0.7-2 0-1.7 1.7-1.8 2-3.3"/> <path class="st1" d="m542.1 509.1c-0.2-0.7-0.9-0.7-1-1.5 0-0.3 0.1-0.7 0.1-1-0.1-0.6-0.6-0.6-0.5-1.3 1.7-0.5 2.1-2.9 0.4-3.8 0.5-0.8 4.4-0.8 4.9-0.9 2.8-0.5 5.8-1.4 7.8-3.7-1-1-3.1-1.2-4.4-1.4-0.9-0.1-3.1 0.3-3.3-1.1 2.5-1.9 6.5-1.9 8.3-4.8 1.2-1.9-0.9-1.8-2.2-2.4 0-1.7 2.2-0.1 2.6-1.4-0.6-0.8-1.3-1.5-2.2-1.9-0.6-0.3-1.8-0.4-2.3-1.1 0.3-0.6 1-0.4 1.3-1 0.6-0.9-0.9-2.4-1.3-2.9-1.5-1.8-3.3-3.2-5.6-3.8-0.4-0.1-2.7-0.2-3.1-0.8 2.8-1.3-2.6-4.9-0.3-6.3 1.5-1 2.8-0.2 2.2-2.4-0.8-2.9-2.5-3.7-5.1-4.6 1.8-0.3 3.6-0.6 5.4-0.7 0.9-0.1 3 0.3 3.9-0.2 0-3.2-1.6-4.7-4.7-5.1 0.3-0.7 0.9-1 1.8-1 2-0.7 5.1-0.5 6.8-2.1 2.2-2-1.9-4-3.6-4.3-0.8 0.1-1.5-0.1-2-0.7-0.1-0.7 0.7-1.3 1-1.9 0.3-0.9 0.4-3 0-4-0.3-0.7-1-0.8-1.2-1.5 3.6-0.7 8.2-0.4 11-3-0.6-2-2.1-3-3.1-4.8-0.6-1.1-0.4-2.2-1-3.2 1.3-1.2 2.8-2 4.6-2.5 1.6-0.8 3.2-1.5 4.8-2.3 1.9-0.8 3.7-1.9 5.5-3 0.5-1 0.2-2.5-0.8-3.1-0.6-0.3-1.5-0.2-2.1-0.3-0.1-0.3-0.1-0.7 0-1-0.2-1.2-1.3-1.3-1.9-2.2 2.2-0.8 4.5-0.9 6.7-1.4 2.4-0.6 4.8-1.4 7-2.3-1.9 0.2-5 0.8-6.5 2 0.5 1.1 2.3 1.4 3.4 1.6 0.4 1.3-3.5 2.5-4 2.7-0.9 0.4-5.9 1.9-6 3.3-0.3 3 7 2.7 8.7 3.1-1.2 1-3.5 2.1-4.8 2.8-0.8 0.4-3.1 1-3.4 2.2 0.5 0.7 1.2 1.1 2.2 1l2.7 0.6c1 1.2-0.4 2.3-1.3 3.2s-3.3 2.5-2 3.9c0.8 0.8 4-0.1 3.5 1.8-1.8 0.7-3.5 1.3-5.3 1.9-1.3 0.5-5.1 1.7-5.9 3.3 2.4 0.7 5.6-0.1 7.8 1.2-0.3 1.5-3.1 0.7-3.2 2.5-0.1 2 2.6 1 3.3 2.3-1.1 1.4-3.2 1.7-4.8 2.2 0 2 4.1 1.7 5.2 2.4-1.8 1.7-5.3 1.6-7.5 2.6-0.2 1.7 4 2.4 4.9 2.6 2.8 0.7 6 0.1 8.6 0.9-1.4 1.3-4.4-0.1-5 2.2-0.3 1 0.3 2.1 0.8 2.9 0.5 0.7 1.5 1.1 1.8 1.8-0.4 0.6-0.9 1-1.6 1.3-0.7 0.4-1.5 0.8-2.2 1.2-1.1 0.6-2.3 1-3.5 1.2-2.5 2 4.3 2.3 4.7 2.9 0.4 0.5 0.8 0 0.1 1-0.7 0.9-2.5 1-3.2 2.1-1.4 2.2 3.9 2.5 4.9 3.1-0.1 1.1-1.4 0.8-1.6 2-0.2 1.4 1.6 2.4 1.6 3.8 0.1 2.2-2.9 1.9-4.3 2.9-0.6 0-0.8 0.3-0.8 0.7-0.1 0.6 0.5 0.8 0.5 1.1 0 2.4-3.8 0.8-4.9 2.4-0.7 1.1 0.7 1.2 1 2 0.4 1.1-0.9 2.4-0.6 3.6 0.3 1 1.7 1.2 1.6 2.5-1.4 0.9-4.4 1.3-5 3-0.1 0.4-0.1 0.8-0.1 1.1-0.6 1.4-1.9 1-3 1.5-1.2 0.6-1 1.8-1 2.9-0.1 0.9-0.4 1.8-1.1 2.4-1.7 1.5-3.4-0.8-4.9-1.3-1.6-0.5-3.4 0.2-5-0.2-0.1-0.8-0.2-1.2-0.6-1.9"/> <path class="st4" d="m501.3 576.5c-1.1-1.2-2-3.1-3.4-4-1.1-0.8-2.8-0.3-3.6-1.4 0.3 0 0.7 0 1 0.1-1.7-0.7-3.6-2.5-5.1-3.4s-2.7-2.1-4.1-3.1c-1.6-1.8-9-6.7-10.2-5 0.2 1.2 0.7 2.4 1.5 3.4-2.1-1.4-4.2-2.6-6.3-4.1-0.4-0.3-5.1-4.7-6.4-3.9 1.3 1.9 3.1 3.6 4.2 5.6-1.3-0.6-2.6-1.5-4.1-1.7-0.1 3.7 4.4 8.7 2.7 12.2-4-0.7-5.8-8-10-6.3 0.4 2.3 3 6.6 0.8 8.6-1.4-0.2-2-1.3-3.2-1.6-0.7 1.1 0.5 3.1 0.9 3.9 1.6 3.4 4.3 6.1 5.8 9.7 1.1 2.6 1.2 4.8 1.5 7.6 0.1 0.8 0.3 1.6 0.5 2.3h36c0.1-0.4 0.1-0.8 0.1-1.2 0.2-2.6-0.1-5.3 0-7.9 0-0.9-0.1-4.7 0.9-5 0.7 0.6 0.9 1.9 1.2 2.7 1 2.2 1.1 3.5 1.1 6v5.5h3.3c0.1-1.7 0.3-3.4 0.3-5.1 0-2 0-4 0.2-5.9-0.4-0.8-0.9-1.6-1.5-2.4-1.3-2.1-2.6-3.9-4.1-5.6zm-50.2 11.8c-1.7-2.4-4.8-4.6-8-3.6-0.1 0.4-0.1 0.7 0 1.1-0.6-0.8-1.4-1.2-2.1-1.8-1.8-1.6-5.4-6.6-8.3-5.5-0.7-1.1-1.3-2.4-2.4-3.1-1.6 0.8-0.8 7.4-0.6 9 0.3 2.4 1.3 4.1 2.7 6.1 0.1 0.1 2.6 2.9 2.4 3.7-1.8-1-3.8-2.3-5.9-2.7-1.7-0.3-1.4-0.2-1.7 1.3-0.2 0.9-0.1 1.7 0.2 2.5h31.1c-0.4-0.3-0.8-0.7-1.2-1-2.5-1.9-4.5-3.5-6.2-6zm59.2 5.7v1.3h0.3c0-0.5-0.2-0.9-0.3-1.3z"/> <path class="st1" d="m382.5 277.7c-0.3-1.5-0.7-2.9-1-4.3-0.2-1.3-0.8-2.5-1.1-3.8-0.4-1.3-0.6-2.5-0.9-3.8-0.3-1.2-0.4-2.2-0.3-3.4 0-0.9 0.2-1.7-0.1-2.6-0.8-1.5-1.6-3-2.3-4.5-0.5-1.2-0.9-2.4-1.4-3.7-0.8-2.4-1.5-4.8-2.5-7.2-1.4-3.3-2.2-7-4.8-9.6s-2.6-6.7-4.8-9.4c0 1.1-1.4 1.8-2.5 1.4-1.7-0.6-3-4.4-3.7-5.7-0.2-0.4-1.4-3.3-2.2-3.7 0 0.3 0.1 1-0.3 1.1-2.1-1.7-4-3.7-6.6-4.6-1.2 1 0.2 3.4-0.7 4.7-1.5-0.8-2.3-3.1-4-3.7-0.5 0.7 0.3 2.3-0.5 2.6-0.9-0.4-1.4-1-2.1-1.6-0.1-0.4-0.4-0.5-0.7-0.5-0.2 0.7 0 1.4 0 2.1 0 1.1-0.1 1-1 1-1.3 0.1-2.1-0.5-3.1-1.2-0.4-0.6-0.9-0.8-1.4-0.5-0.1 1.3-0.3 2.6-0.8 3.9-0.1 0.7-0.4 1.3-1 1.7-0.9 0.2-1.6-1-2.4-1.2-0.3 1.7 0.2 3.4-0.2 5.1-0.8 0.5-0.9-0.7-1.6-0.6-0.6 0.1-0.3 1.4-0.3 1.8 0 0.9 0.3 1.7-0.7 1.8-0.7 0.1-1.4-1-2.1-0.5-0.2 1.5-0.5 4.1 1 5.1 0.5-0.5 0.1-1.2 0.8-1.6 0.4 0.2 1.2 0.9 1.6 0.9 0.2 0 0.4-0.3 0.6-0.4 0.2 0.4 0.4 0.8 0.8 1.1 1-0.5 1.2-2.7 1.6-3.7 1.2-0.2 2.2 2.4 3.3 2 0.9-0.4 0.4-2.1 1.3-2.4 0.5 0.2 0.6 0.7 1 1 0.4-1.7 0.2-4 1.8-5.2 1.2 0.7 1.7 1.9 2.6 2.9 0.4 0.4 1.8 1.9 2.6 1.7 1.6-0.4 1.5-3.7 2.6-4.7 0.6 0.8 0.4 2 1.1 2.8 0.2-0.4 0.2-1.1 0.8-0.9 0.3 0.6 0.5 2.1 1.2 2.3 0.6-0.6 0.7-1.8 1.6-1.1 0.6 0.5 0.9 2 1.6 2.3 1-0.6 0.6-2.1 1.4-2.7 1 0.9 1.3 1.6 1.5 2.9-0.1 0.7 0.1 1.3 0.6 1.8 0.2-0.5 0.2-1.6 0.6-1.9 0.6 1.9 0.4 4 0.9 6 0.2 0 0.2-0.2 0.3-0.3-0.2 2.2 0.3 4.5 0.3 6.7 0 3 1.6 6 2.5 8.8-0.1-0.2-0.1-0.5 0-0.7 1.4 1.3 2.7 3.1 3.7 4.6 0.6 0.8 1 1.5 1.5 2.2 0.1 0.5 0.1 1.1 0.2 1.6 0.2 1 0.6 1.6 1.1 2.4 0.3 0.5 0.8 1 1.1 1.5s0.2 0.6 0.2 1.1c0.1 0.8 0.4 1.1 0.7 1.8s0.4 1.4 0.7 2.1c0.3 0.6 0.9 1.3 1 1.9 0 0.2 0.1 0.4 0.1 0.6-0.9-0.9-2.7-1.7-2.5 0.4-3.1-0.3-2.5 3.1-2.8 5.5-0.3 3.1-0.9 6.1-2.5 8.8-0.3 0.6-0.6 1.1-1 1.5-0.8 1.6 0.3 5-1.7 6.2-1.2 0.8-2.4-0.2-3.5-0.5 0.1 2.6-1.6 1.3-2.9 2.1-1.6 0.9 0.3 4.8-2.6 4.1-0.7 2.3 0.6 4.9-1.4 6.9-1.2-0.1-2-0.9-3.3-0.6-0.5 1.5-0.1 3-0.3 4.6-1.4 0.7-2.6-1.9-3.4-2.5-0.9 1-0.4 2.2-0.9 3.3-2 0.8-1.8-1.7-3.6-1.5-0.6 1.5 0.3 6.5-2.4 6.4-1 0-1.1-1.2-2.3-0.7-1 1-1.4 2.3-1.2 3.8-0.1 1.5 0.3 6.4-1.9 7.1-0.6 0.2-1.2 0.1-1.6-0.5-0.9 0-1.6-0.3-1.5 1.2-0.8-0.4-1.3-1.6-2.3-2-0.6 1.3-0.7 2.7-0.4 4.2-0.2 3.3-0.7 6.6-1.3 9.9-0.3 1.3-0.6 2.4-0.6 3.7-0.5-0.4-0.8-1.2-1-1.8-1.8-0.5-2.8 2.1-3.9-0.6s-1.4-5.1-1.4-8.2c0-1.5 0-3 0.1-4.5 0-0.4-0.2-0.7-0.6-0.8-0.1-0.7-0.2-1.2-0.2-1.9 0-1.4 0.4-3.4-0.1-4.8-0.4-0.1-0.8-0.1-1.1-0.2-0.6-1.2 0-3.2-0.1-4.6-3 1.7-6.6 4.6-10.3 3.2 0.2-1.9-1.7-1-2.7-1.4-0.2-1 0.3-2.1-0.3-3.1-0.8-1.2-2.6-0.8-3.7-1-0.6 0-1.1-0.2-1.6-0.5-0.4-0.2-0.6-0.5-0.6-0.9-0.7-0.5-1-0.7-2-0.8-0.3-0.8 0-1.7-0.2-2.5-0.3-0.5-0.5-1-0.6-1.5-0.2-1.1 0.4-2.3-0.1-3.4-2.1 0.3-1.4-2.3-3.2-2.3-0.6-2.5-0.1-4.9-1-7.4-0.3-0.7-1.1-2.3-2-1 0.2-0.3 0.5-0.6 0.7-0.9-1.8 1.4-9.2 5.3-9.6 0.7-0.6 0.9-3.1 0.5-4 0.4-1.2-3.3 1-7.4 1.2-10.7 0.2-2.7-1.4-2.6-1.4-5.1 0-1.8 0.2-2.2 1.3-3.7 0.8-0.4 1.1-1 0.8-1.8-1.1-2-5.1 0.3-6.2-1.2 1.1-0.9 1.4-2.9 1.3-4.2-1.1-0.5-3.3 1.9-4.6 2 0 0.2-0.1 0.4-0.1 0.6l-1.4-1.4c-0.2 0-0.4 0.1-0.6 0.1-0.3 0.9-0.1 1.7-0.1 2.6-0.1 1.1-0.5 1.8-0.7 2.9-0.8 3.8-2.1 7.7-2.1 11.7 1.2 0.1 2.8-0.5 3.7 0.4s0.5 2.4 0.5 3.6c0 0.9-0.2 2.1 0 2.9s0.6 0.6 0.8 1.5c0.5 2.4-1.3 5.2-1.5 7.6-0.2 1.8-0.7 3.2-1.4 5-0.7 1.9-0.6 3.1-1.6 4.8-1.3 2.1-3.2 4.1-1.7 6.5 1.2-0.1 2.5-0.3 3.7-0.4 1.1 1 0 2.6 0.3 3.9-0.1 0.6 0.1 0.9 0.6 1.1 0.2 1.7-0.4 4-0.7 5.8-0.3 1.5-0.9 2.9-1.2 4.3-0.4 1.7 0.1 3.7 0 5.5 0.4-0.7 1.1-0.8 1.9-0.5 0.5 1.3-0.4 2.9-0.5 4.2-0.1 1.7-0.4 4.4 0.1 6 0.3-0.2 0.6-0.4 1-0.5-0.4 1.6-2.1 8 0.5 8.1-0.3 1.7-0.1 3.3-0.4 5.1s-0.3 3.6-0.7 5.4c-0.3 0.1-0.5 0.3-0.6 0.6-0.4 1.5 0.2 3.3 0.1 4.8-0.2 1.8-1.1 3.7-0.8 5.5 2-0.9 4.2-1.3 6.4-1.3 0.9 0 1.8 0.1 2.7 0.1 1.1-0.3 2.2-1 3.1-1.6-1.7 3.9-1.6 9.5-1.2 13.7 0.1 1.1 1.1 2.8 0.2 3.8 1.5 0.5 7.4-3.7 7.7-3.9 1.8-1.4 3.8-2.3 6-2.6 1.4 0.7 0.3 1.8 0.8 3 0.3-0.1 0.5-0.2 0.7-0.5-0.1 0.4-0.1 0.7-0.1 1.2-0.4 2.6-2.2 4.6-3 7.1-0.6 1.8-0.6 3.7-1.3 5.5-1 2.3-1.7 4.3-1.9 6.9-0.1 1.5-0.4 1.9-0.9 3.2-0.5 1.5-0.3 2.7-0.5 4.3-0.2 1.8-0.7 3.1-0.7 5v3.4 5.3 11.1c0 3.7 2 7.8 4.1 10.9 1 1.4 2.4 3.3 3.6 4.4 1 0.9 2.6 0.8 4 0.7 1.1-0.1 1.7-0.6 2.8-0.7 0.7-0.1 1.3 0.2 1.9-0.1 1-0.5 1.5-2 2.3-2.6 1.4-1.1 3.3-1.7 4.9-2.2 2.5-0.8 6.6-1.2 8.4-3.1 1.2-1.2 1.1-2.7 1.1-4.3v-9c0-2.4 0.2-4.6 0.6-7 0.3-2.2 0-4.2 0.3-6.4 0.7-4.9 3.1-9.1 4.9-13.6 1.5-3.8 2.1-7.8 3.5-11.5 1.4-3.6 4.3-6.4 6-9.9 1.1-2.2 1.8-4.5 2.7-6.8 1-2.5 1.8-5.1 2-7.8 0.4-5.1 4.7-7.7 8.1-11.2 3-3.1 5.6-5.8 9.2-8.2 2.3-1.5 4.8-3.4 7.2-4.6 1.6-0.8 3.8-1.1 5.3-2.2 1.2-0.9 2.4-3 3.1-4.3 1.5-2.5 2.1-5.1 3.1-7.8 0.9-2.4 2-4.7 3-7 3.8-8.9 3.2-18.7 3.3-28.2 0-4.9-0.8-10.1-2.1-14.8-0.4-1.4-1.2-2.8-1.4-4.2-0.2-1.1-0.2-2.2-0.3-3.3 0.9 1.8 1.9 3.6 3.6 4.6 1.2 0.7 2.9 1.3 4.3 1.4 0.2 0 0.9 0.1 1 0 0.5-0.2 0.2-0.2 0.3-0.7 0.2-0.7 0-1.8-0.1-2.4z"/> <path class="st5" d="m346.5 543.8c-0.1 0.7 0.4 2.7 1.3 2.8 0.1-0.4 0-1.1 0.7-1.2 1-0.2 1 2.1 1.1 2.6 0.1 0.6 0.4 0.7 0.7 1.4 0.2 0.6 0.6 2.1 1.5 1.2 0.5-0.5 0.4-1.6 1.3-1.5 0.5 0 0.8 0.6 1.4 0.3s0.7-1.4 1.5-1.4c1-0.1 1.1 1.4 1.2 2 0.4 0.1 0.3-0.5 0.6-0.5 0.4-0.1 0.4 0.5 0.6 0.7 0.2 0.5 0.6 0.9 1.3 0.9 1.1 0.1 1.3-1.4 2-1.7 1.2-0.4 1.3 2.1 1.7 2.8 0.7-0.2 0.4-1 1-1.2 0.8-0.3 1 1.5 1.1 1.8 0.1 0.4 0.4 2.7 1.4 2 0.7-0.5 0.5-2.3 0.6-3 1.1 0.7 0.7 2.6 2.1 3.2 0.7-0.3 0.3-1.8 0.7-2.4 1 0.1 1.3 1.6 2.1 2.1 0.4 0.3 0.7 0.3 1.1 0 0.4-0.4 0-1.3 0.3-1.6 0.7-0.6 2.2 1.3 2.9 1.5 1.1 0.3 0.6-0.5 0.7-1.3 0.6-0.1 1 0.9 1.6 1 1.2 0.2 0.7-0.5 0.8-1.3 0.4 0.2 2 0.9 2.5 0.7 0.1-0.5 0.1-0.9-0.1-1.3 2.1 1 4.1 2.4 6.5 2.2 0.4-0.5-0.2-0.7-0.2-1.2 2.5-0.2 5.1 0.9 7.7 0.5 0.5-1.5-1.7-3.1-2.7-3.9 0.9 0.7 1.8 1.2 2.9 1.5 0.3 0.1 1.6 0.5 1.9 0.1-0.2-0.4-0.7-0.6-1-0.9 1.1-0.1 2.7 0.6 3.8 0.8 1.3 0.2 3.2 0.6 4.5 0.2 0.1-0.4-0.1-0.7-0.4-0.8 1.5 0 3.3 0.3 4.8-0.2 0.9-0.3 0.8-0.7 0.2-1.4 1.4-0.2 3.6 0.5 4.8-0.4-0.1-0.2-0.1-0.3-0.2-0.4 1.8-0.2 3.7 0.2 5.5-0.4 0.3-1.3-1.1-1.9-2-2.4 1.5-0.8 3.8-0.2 5.5-0.3 0.3-0.5-0.4-0.9-0.2-1.4 0.9-0.1 2.1 0.7 3 0.9 0.8 0.1 2 0.2 2.8 0 0.1-0.5-0.2-1.1-0.5-1.4 0.1 0.1 0.3 0.1 0.4 0 0.1-0.6-0.6-1-0.5-1.6 1-0.2 0.5-2.2 0.5-2.8s0.3-2.2-0.2-2.5c0.8 0 1.6 0.1 2.4 0.4-0.5-1.1-1.3-2.1-1.7-3.2 0.4-0.1 0.4-0.2 0.6-0.7 0.4-1.4-0.2-3.1 0.1-4.5 0.7-0.1 1.6 0.7 2.2 0.1-0.1 0.7 1.3 2.1 2 2.2-0.1-0.2-0.1-0.4 0-0.6 0.7-0.3 1.3 0.5 1.9 0.2 0-1.8-0.5-3.9 0.5-5.5 0.6 0 0.8 0.4 1.1 0.7v-0.6c1.3 0.1 0.9-3.8 1.1-4.8 0.5 0 0.6 0.7 1.1 0.7 0.9 0 0.3-2.9 0.9-3.5 1 0 1.4 1.5 2.5 1.2 1.2-0.3 0.4-2.4 0.4-3.3 0.9-0.1 5.9 0.6 6-0.5-0.7-0.8-1.9-2.2-3.1-2 1.8 0.1 3.8 0.2 5.7 0 0-1-2.1-1.8-2.8-2.5 1.8-0.1 3.7 0.1 5.5 0 1.1 0 3.8 0.1 4.7-1 0.9-1.2-1.8-1.1-2.2-1.6 0.8-0.3 1.7-0.5 2.6-0.5 0.4 0 1.9 0.1 2.1-0.5 0.4-1.1-3.5-0.9-3.9-1.3 1-0.4 2-0.6 3-0.9 0.4-0.1 1.1-0.1 1.3-0.5 0.5-1.2-2.1-1.9-2.8-2 0.5-0.2 1.1-0.4 1.7-0.5 0.9-0.1 1.8-0.3 2.6-0.6 0.4-0.3 0.5-0.5 0.3-1-0.5-0.1-1.1-0.2-1.3-0.8 2.3-1.1 5-1.3 7.4-2.1-0.4-1.3-2.4-1.8-3.5-2.1-1.2-0.4-2.7-0.4-3.9-0.9 1.8-0.1 3.8-0.3 5.6-0.6 0.1-0.6-0.8-0.6-1.2-0.8 0.7-0.6 3.7-0.6 3.8-1.7 0.1-1.2-1.9-0.9-2.6-1.1 0.7-0.4 2 0.2 2.6-0.5 0.5-0.5 0.2-0.9-0.3-1.2 1-0.5 2.2-0.6 3.4-0.4 0 0-1.1-1.6-1.2-1.8-0.3-0.2-0.4-0.5-0.3-0.8 0.8-0.6 1.6-1 2.5-1.3 0.4-0.2 4.3-0.8 4.2-1.7-0.1-0.6-1.4-0.5-1.8-0.6 0.2-0.3 0.4-0.4 0.2-0.8-0.4-0.8-2.1-0.5-2.3-1.3 0.8 0 1.6 0 2.3-0.1 0.4-1-1.2-1.1-1.6-1.6 0.7-0.4 1.5-0.7 2.4-0.9 1-0.1 2-0.4 2.7-1.1 1.2-1.5 0-2.3-1.3-2.8 0.6-0.2 2.4-0.5 2.7-1.2 0.7-1.5-1.5-1.3-1.7-2.1 0.9-0.1 1.8-0.1 2.7-0.1 0.8 0 1.5-0.1 2.3-0.2 0.7-0.7-1.6-1.7-2-2 0.5-0.6 1.1-0.1 0.8-1.2-0.4-0.9-0.9-1.7-1.6-2.4-0.7-0.9-1.4-1.8-2.3-2.6-0.6-0.6-1.2-0.8-1.9-1.2-0.6-0.3-1.7-0.7-2-1.3 1.5 0.3 3 1.5 4.6 1.4-1.2-0.9-3.7-1.6-3.6-3.5 0.2-0.2 0.3-0.4 0.2-0.7v-1.8c0-1.2-0.3-1.5-1.5-1.6-1.2 0-1.8 0.1-2.8-0.6-0.8-0.5-1.5-1.1-2.4-1.4-2.8-1-5.9-0.8-8.8-1.2-2.6-0.4-5.2 0.2-7.7 0.9-2.7 0.8-5.3 1.6-7.9 2.5-1.5 0.5-3 0.9-4.5 1.4-2.8 0.9-5.6 2-8.4 3.2-5 1.9-10.5 3.3-15.9 3.9-5 0.6-10.1 0.3-15.1 0.3-11.8 0-23.6 0.3-35.5 0.3h-16.1c-3.5 0-7 0-10.5-0.1-2.4-0.1-4.9-0.3-7.3-0.5-1.5-0.1-3-0.1-4.6-0.1-0.5 0-1.3 0.1-1.8 0-0.4-0.1-0.7-0.4-1.1-0.5h-1.1c-1.1 0-2.2-0.2-3.3-0.4-0.7-0.1-1.1-0.2-1.5-0.9-0.3-0.7-0.3-1.1-0.9-1.5-1.3-0.9-2.7-1.1-4.2-1.4-0.4-0.1-0.9-0.2-1.3-0.3-0.6-0.3-0.8-0.3-1.5-0.3-1.8 0-3.5-0.5-5.3-0.6-3.2-0.2-5.9 0.9-8.9 1.7-1 0.3-2 0.1-3 0.4-1.2 0.4-2.6 0.8-3.5 1.6 0.4 0.6 1 0.4 1.5 0.7 0.4 0.2 0.3 0.4 0.7 0.6 0.4 0.1 0.8 0.1 1.3 0.3 0.4 0.2 0.8 0.2 1.2 0.3v0.6c0.1 1.1 1 1.9 1.8 2.5 1 0.7 1.4 0.5 2.3 0.8 0.3 0.1 0.8 0.5 1.2 0.7-1 0.2-1.9 0.4-2.9 0.5-0.5 0.1-2.7-0.1-3.2 0.4 0.1 0.2 0.3 0.3 0.5 0.3-0.8 0.1-3.3 0-3.8 0.8-0.4 0.7 1 0.8 1.4 0.8-0.5 0-1 0.2-1.4 0.3 0 0.4 2.2 1.1 2.2 1.1 1.7 0.7 3.3 1.6 5.2 1.9 0-0.3-6.8 0.4-7.5 0.5 0 3.1 4.6 2.9 6.5 3.4-0.4 0.2-1 0.2-1.5 0.2 0.4 0.7 1.8 1 2.4 1.1 1.7 0.5 3.7 0.7 5.2 1.8-0.4 0.8-1.4 0.4-1.8 0.9 0.1 0.7 0.4 1.2 1.1 1.6l1.5 0.9 2.4 0.9c0.2 0.2 0.3 0.4 0.3 0.6 0.2 0.4 0.7 0.6 0.8 1-0.5 0.7-1.5 0.5-1.5 1.4-0.1 0.8 0.5 1.4 1.2 1.7 0 0.1-0.1 0.2-0.2 0.3 0.5 0.4 0.9 0.2 1.1 1-0.1 0.2 0 0.5 0 0.7 0.2 0.3 0.8 0.3 1.1 0.4 0.1 1-1.8 3-2.3 3.5-1.1 1.1-2.3 2-3.5 2.9 0.2 0.1 0.3 0.1 0.5 0 0.8 0 1.7-0.1 2.5 0 0.3 0.4-1.1 1.8-1.1 1.8-0.9 1-1.9 1.8-3 2.7 0.3 0.2 0.7 0.3 1.1 0.2 1 0 1.9-0.1 2.9 0.1 0.2 1.5-1.6 2.6-2.1 4 1.5 0.7 3.6 0.2 5.2 0.3-0.2 0.6-0.7 1-1 1.6 0.5 0.2 1.1 0 1.6 0-0.7 1.1-1.1 2.2-1.2 3.5 0.4 0.3 1 0.4 1.5 0.2 2 0.1 4-0.1 6-0.5 0.3 0.7-1.9 2.4-2.2 3.2-0.4 0.9-0.2 2-0.2 3v1.9c0.2 0.2 0.4 0.2 0.6 0 0.5-0.1 0.8 0.2 0.8 0.8 0.3 1.2-0.6 2.6-0.9 3.7 0.9 0 1.6-1 2.2-1.5-0.1 1.1-1.4 2.3-1 3.5 0.6-0.2 1-0.7 1.6-0.9-0.2 1.2-1.3 2.5-1.1 3.7 0.8 0 1.6-0.2 2.3-0.7 0.9-0.6 1.8-1.1 2.7-1.4 0.5 0.2 0.7 0.5 0.5 1.1 0.3 0.6 1 0.4 1.6 0.4 0.1 0.5 0.1 1 0 1.6v1.3c0.3 0.3 0.8 0.2 0.9-0.3 0 0.4-0.3 1.9 0 2.2 0.7 0.6 0.8-0.2 1 1.3 0.1 0.9 0.1 1.9 0 2.8-0.1 0.5 0 0.9 0.2 1.2 1.2 0.9 2.6-1.2 3.2-1.9 0.5 2.1 0.1 4.3 0.2 6.5 0 0.6 0.1 1.1 0.2 1.7 0.1 0.5-0.2 1.5 0.2 1.9 1.4-0.2 1.9-1.4 2.6-2.5s1.4-2.1 2.3-2.9c0.4 0.2 0.4 1.8 0.5 2 0.2 1.3 0.4 2.7 0.9 3.9 0.6 0.1 0.8-1.4 0.9-1.9 0.5 0 1 2.1 1.1 2.3 0.2 0.6 0.4 1.7 1 2.1 1.5-0.3 1.1-3 2.4-3.8 0.5 1 0.6 2.3 1.5 3.1 0.5-0.1 0.7-2.7 0.8-3.2"/> <path class="st6" d="m453.7 284.2s3.1-13.1 12.5-17.5 28 2 26.5 16.8-10.3 18.8-20 18.8-19-3.1-19-18.1z"/> <path class="st7" d="m486.6 279.3s11.1 15.4-10.8 22.8v-9.8l10.8-13z"/> <radialGradient id="b" cx="470.59" cy="284.25" r="17.447" gradientUnits="userSpaceOnUse"> <stop stop-color="#F7AC15" offset="0"/> <stop stop-color="#7E4118" offset="1"/> </radialGradient> <path class="st8" d="m468.7 266.2c-0.5 0-1 0-1.4 0.1s-0.7 0.3-1.1 0.4c-9.4 4.4-12.5 17.5-12.5 17.5 0 15 9.3 18 19 18 1.1 0 2.1-0.1 3.1-0.2 6.8-2.8 11.6-9.4 11.6-17.2 0.1-10.2-8.3-18.6-18.7-18.6z"/> <ellipse cx="468.1" cy="284.8" rx="8.9" ry="8.6"/> <ellipse class="st9" cx="472.2" cy="283.6" rx="3.7" ry="3.6"/> <path class="st1" d="m335.4 283.9s-4.4-11.7-5.3-15.4c-0.8-3.7-2.9-9.8-13.6-9.8s-20.5 10.2-20.5 19.2 5.9 20.5 19.5 18c13.6-2.7 19.9-12 19.9-12z"/> <path class="st7" d="m303 276.4s-6.1 7.2 2 14.2l1.8-4.1-3.8-10.1z"/> <radialGradient id="a" cx="318.89" cy="279.3" r="16.669" gradientUnits="userSpaceOnUse"> <stop stop-color="#F7AC15" offset="0"/> <stop stop-color="#7E4118" offset="1"/> </radialGradient> <path class="st10" d="m335.4 283.9s-4.4-11.7-5.3-15.4c-0.3-1.3-0.7-2.8-1.6-4.3-2.3-1-4.9-1.6-7.6-1.6-8.7 0-16 5.9-18.1 13.9-0.4 1.5-0.6 3.1-0.6 4.7 0 2.6 0.5 5 1.5 7.2 1.3 3 3.3 5.6 5.9 7.6 1.8 0.2 3.7 0.2 5.9-0.2 13.6-2.6 19.9-11.9 19.9-11.9z"/> <circle cx="320" cy="277.6" r="8.1"/> <circle class="st9" cx="327.2" cy="276.7" r="2.4"/> <ellipse class="st9" transform="matrix(.2778 -.9606 .9606 .2778 -40.541 492.97)" cx="307.6" cy="273.4" rx="3.6" ry="1.8"/> <path d="m477.3 452.6s-3.7-3-3.7-6.7-4.7-10-11.3-10c-6.7 0-75.4 3.9-75.4 3.9l-57.2-1.9-14.6 4.3s-6.7 12-3.7 22.3c2.3 8 6.5 21.5 10.6 29.4 0-0.1 0.1-0.3 0.1-0.4 7.7 9.8 16.9 0.2 16.9 0.2l1.1 6.9s-7.8 15.6 15.6 15.6 39 3 46.3 0.3c6-2.2 19.2-1.7 24.7-4.6-0.1-1.8-0.3-3.7-0.3-5.5 0-6.9 1.7-3.4 8.6-3.4 2.2 0 3.7 0.5 5.1 0.8 3.2-1 7.7-2.7 9.9-4.9 3.7-3.7 6.7-6.7 6.7-11s4.7-6.7 4.7-11.7 8.3-11.7 9.7-17c1.2-5.3 6.2-6.6 6.2-6.6z"/> <path class="st3" d="m414.4 501.7s-5.9 7.3-13.4 5.5c0 0-5 3-11.8 0 0 0-5.5 3.8-9.3 0 0 0-5.4 2.6-8 0 0 0-7.8 1.5-11.8-2.5 0 0-12.4 0.8-12.4-7.1l0.1-7.7 8.5-4 22 2 19.3-0.8 11.3-0.8 4 1.3 1.5 14.1z"/> <path class="st3" d="m414.4 501.7s-8.3-2.4-4.1-12.8c4.1-10.4 15.4-28 17.2-18.2 1.8 9.9-8.3 33.6-13.1 31z"/> <path class="st3" d="m354.8 488.7s-7.8 15.8-13.3 7.6-5-27 0-27 10.4 4.5 13.3 19.4z"/> <path class="st11" d="m352.2 445.3s-0.2 12.5-0.2 22.4-0.4 22.1 8.1 25 16.4 7.6 31.7 5.2c15.3-2.3 18.9-10.5 18.9-10.5s2.6-8.3 6.8-12.8c0 0 1.9-16.3 0-26.4-1.8-10.2-65.3-2.9-65.3-2.9z"/> <path class="st12" d="m411.2 459.1c0.2-0.1 0.5-0.1 0.8-0.1 0.7-0.4 0.6-0.4 1-1.2s0.9-1.7 1.3-2.5c0.2-0.6 0.2-1 0.4-1.6 0.3-0.8 0.9-1.2 1.1-2 0.2-0.5 0.3-0.9 0.5-1.5 0.3-0.8 0.4-1 0.4-1.9 0-0.6 0.1-1.4 0.1-2.1-7.7-8.1-64.5-1.5-64.5-1.5s0 0.1 0 0.2c0.4 0.7 0.8 1.5 1.2 2 0.8 0.9 1.9 1.2 2.5 2.3 0.5 1.1 0.5 2.5 0.3 3.7-0.3 2.3-1.2 4.5-1.7 6.7-0.5 1.8-0.7 3.3-1.6 5-0.3 0.5-0.8 1.2 0 1.7 1 0.6 2.3-2.1 2.6-2.7 0.5-1.1 0.8-2.3 1.7-3.1 0.9-0.7 2.3-0.5 3-1.3-0.1 1 0.1 2 0 3-0.2 1.4-1.3 2.3-2 3.4-1.3 2-3.5 3.5-4.4 5.8 1.7 0.4 3.2-1.8 4.4-2.7 1-0.7 2.3-1 3.2-1.9 1-1 1.6-2.5 2.3-3.7 0.5-0.9 1.5-2.3 2.5-2.7 1.8-0.7 2.4 1.2 3.9 1.9 0.8 0.4 1.1 0.1 1.3 1.1 0.2 1.2-0.6 2.7-1.3 3.6-0.9 1.3-2.2 2.1-3 3.4-0.5 0.8-1 1.7-1.7 2.3-0.4 0.4-0.9 0.4-1.3 0.8-1 0.9-1.6 2.4-2.5 3.5-0.7 0.8-1.7 1.8-1.7 2.9 0.5-0.4 0.9-0.9 1.3-1.4 0.9-1 2.2-1.3 3.1-2.1 0.4-0.4 0.8-1 1.3-1.5 1.3-1.3 2.1-2.4 3.9-2.8 1.9-0.4 4.3-0.9 5.9-2.3 1.1-0.9 2-2.4 2.8-3.6 0.6 0.2 0.7 0.7 0.7 1.4 0.1 0.9 0.2 1.3 0.5 2.2 0.9 2.2 1.7 4.5 2.9 6.6 0.6 1 1 2.2 1.4 3.4 0.5 1.6 0.1 3.1 0.4 4.7 0.2 1.1 0.5 4.6 1.9 4.8 0.4-1.5 0.1-3.5 0.1-5v-5.1-4.7c0-1.7 0.2-4 1-5.5 1.3 0.2 2.4 1.5 3.3 2.4 0.7 0.8 1.5 1.5 2.3 2.3 0.5 0.4 1 0.7 1.5 1 0.4 0.5 0.6 0.8 1.2 1.3 0.8 0.6 1.9 0.8 2.6 1.5 1 1 2 2.3 2.6 3.6 0.5 1 0.9 2.3 2.1 2.4 0.2-1.7-1.3-3.8-2-5.2-0.9-1.8-1.9-3.7-3.1-5.3-0.9-1.2-3.1-3-2.5-4.7 0.6-0.2 1.2-0.2 1.8-0.4 0.7-0.3 1.3-0.5 2-0.6 0.6 0 1.5 0.2 2 0 0.6-0.2 0.7-0.7 1.2-1.1 1.4-1.1 2.6 0.7 3.8 1.5 0.9 0.6 1.6 1.2 2.4 1.9 0.4 0.3 1.4 1.1 1.7 1.1-0.8-1.7-0.6-3.3-0.7-5.1 0-1.4 0.2-2.9 0.5-4.2 0.2-0.8 0.7-1.9 1.3-2.3z"/> <path class="st13" d="m466.3 458.7c-1-0.5-2-0.8-2.9-1.2-0.6-0.3-1.3-0.7-1.9-0.9-0.5-0.2-0.9-0.1-1.4-0.4s-1.1-0.9-1.4-1.4-0.2-1-0.7-1.5c-0.5-0.6-0.8-0.7-1.6-0.7-0.3 0-1.2-0.1-1.4 0.1-0.3 0.3 0.6 2.1 0.8 2.5 0.4 0.7 0.5 1.5 1 2.1 0.7 0.9 1.4 1.7 1.9 2.6 0.2 0.4 0.3 1 0.6 1.3 0.3 0.1 0.5 0.2 0.7 0.3 0.2 0.2 0.4 0.5 0.6 0.8 0.5 0.7 1 1.5 1.3 2.3 0.1 0.3 0.3 0.6 0.4 0.9 0.2 0.1 0.3 0.2 0.3 0.4 0 0.3 0.1 0.6 0.1 0.9 0.2 1 1.1 1.5 1.9 2.1 1.6-2.2 3.5-4.5 4.8-6.6-0.6-1.4-1.5-2.8-3.1-3.6z"/> <path class="st13" d="m402 516.5c0.6-0.2 1.3-0.4 2-0.6-0.1-0.8-0.3-1.7-0.3-2.4-0.1-0.8-0.5-1.9-1.4-2.1-0.6-0.2-1.4 0-2 0s-1.1-0.1-1.7 0.1c-0.9 0.2-1.9 0.7-2.8 1.1-1.2 0.5-2.1 0.8-3.5 0.8-0.5 0-0.9 0-1.4 0.1-0.9 0.2-1.7 0.2-2.6 0.2s-1.8 0.2-2.7 0.4c-0.4 0.1-1.4 0.1-1.7 0.5-0.2 0.3 0 0.8 0 1.1 0-0.1 0.3 0.7 0.2 0.6 0.2 0.4 0.6 0.8 1 1.2 7.7 0.3 13.3 0.3 16.9-1z"/> <path class="st13" d="m349.5 504.7c-0.4-0.3-0.7-0.4-1-0.8-0.6-0.6-1.2-1.2-1.8-1.6-0.4-0.3-0.7-0.4-1.2-0.6-0.3-0.2-0.6-0.3-0.9-0.5-0.2 0-0.4-0.1-0.5-0.1-1-0.5-1.8-1.6-2.9-2-0.4-0.2-0.8-0.2-1.1-0.4-0.1-0.1-0.2-0.2-0.3-0.2l0.4 2.2s-0.6 1.3-1 3.1c0.3 0.2 0.6 0.2 1.1 0.4 0.4 0.1 0.6 0.3 1 0.5s1 0.1 1.4 0.3c1 0.4 1.5 1.2 2.2 2 1.4 1.5 2.8 2.8 5 2.8 0.9 0 1.4-0.2 1.4-1.1 0-1.1-0.1-1.9-0.8-2.7-0.4-0.4-0.7-1-1-1.3z"/> <path class="st13" d="m322 475.3c-0.2-0.5-0.2-0.7-0.3-1.2-0.3-1.5-1.3-2.9-1.6-4.4-0.4-1.5-1.3-2.4-2-3.7-0.5-0.9-0.8-1.8-1.2-2.8-0.2-0.6-0.4-1.1-0.8-1.5-0.5-0.6-1-1.3-1.4-2-0.5-0.9-1.1-2-1.7-2.9-0.5-0.8-1.1-1.9-2.1-2.1-0.5 3.2-0.5 6.7 0.4 10 1.1 3.8 2.7 8.9 4.4 14.1 0.4 0.1 0.7 0.1 1.1 0.1 1.2 0 2.2 0 3.3-0.3 0.8-0.3 1.9-0.2 2-1.3 0-0.3 0.1-0.8 0-1.1 0.2-0.5 0.1-0.7-0.1-0.9z"/> <path class="st5" d="m342.1 467.6c0 0.5-0.1 1.1 0 1.6v-1.6zm-30.6-14.1c0.2-0.1 0.3-0.3 0.4-0.5h-0.3c-0.2 0.1-0.3 0.3-0.1 0.5zm77-161.1c0 0.5-0.1 1.1 0 1.7v-1.7zm28.2 174.7c0.1-0.9 0.1-1.7 0-2.5-0.1 1 0 2.2 0 2.5zm39.9-13.8c9.9-12 12.9-39.4 1.9-67.8-11.6-29.8-29.2-65-44.1-72.2 0 0-0.1 0-0.1-0.1 0.2-0.2 0.4-0.4 0.7-0.9s1.1-1.6 0.4-2.2c-1.5 0.2-3.1 0.4-4.6 0.5-0.6 0.2-1.2 0.3-1.8 0.3l-1.8-0.6c1.1-1 3-2.8 0.8-3.2-1.5-0.3-3.1 0.5-4.6-0.1 0.1-1.3 1.2-3.7 0.4-4.8-0.4-0.5-1.3-0.1-1.5-1.1-1-0.1-2.5 1.5-3.3 0.6 0.1-0.4 0.1-0.7 0-1.1-0.5 0-1-0.1-1.5-0.2 0-0.3 0.2-0.6 0.4-0.9-1.4-0.4-2.8 0.1-4.1-0.1-0.6-1.5 2.4-3.7 1.1-5.1-0.8 0.5-1.5 1-2.2 1.5-0.7 0.6-1.3 0.5-1.7-0.2 0-0.5-0.3-0.7-0.7-0.6-0.5 0.1-1 0.1-1.5-0.1-0.1-0.3-0.1-0.6-0.1-0.9-0.2 2.4-1.2 6.2-2.6 6.6-1.7 0.5-2.3-4.4-2.9-5.4-1.2 1.4-1.4 1-2.3-0.6-0.2 0.4-0.4 0.8-0.4 1.2-0.3-0.6-0.4-1.3-0.6-1.9 0 1.1 0.6 3.9-0.5 4.5-0.9-1.2-1.2-4.5-3.2-4.2-0.3 1.5-0.1 2.9-0.4 4.4-0.9 0.4-1-0.7-1.3-1.3-0.1 0.5 0 1.3-0.5 1.6-0.3-0.8-0.6-1.7-1.1-2.4 0.7 1.1 0.5 3.3 0.2 4.6-1.3 0.4-1.9-1.2-3-1.5-0.1 0.3-0.3 0.5-0.6 0.7-0.5-0.1-1-0.3-1.4-0.7 0.2 0.5 0.2 1.1-0.2 1.4 0.4 1 0.6 2 0.8 3.1-1.5 0.2-3.4-2-4.4-2.9 0.7 1.3 1.6 2.8 1.1 4.4-0.9 0-1.9 0-1.9 1.2-0.1 1.3 0.6 1.1-0.4 2.2-0.6 0.7-1.1 0.3-1 1.5 0.1 0.5 0.3 0.9 0.6 1.3 0.2 0.4 0.4 0.9 0.7 1.4l-11 10.8c-11.3 11.3-25.1 25.1-27.8 39.4-2.8 14.3-25.9 46.9-20.4 63.9 1.8 5.5 4 11 6.8 15.7 0.1 0.3 0.3 0.6 0.3 0.9 0.2 0.7-0.1 1.6 0.2 2.2h0.9c0.2 1 0.1 2.2 0 3.1 0 0.4-0.1 2.6-0.5 3.6 0.5 0.2 0 1.6 0.8 1.6 0.3-0.6 0.5-0.1 0.8 0 0.3 0 1-0.1 1.2 0.1 0.5 0.4 0 1.5 0.7 1.7 0.4 0.1 0.7-0.3 1-0.5 0.6 0.4 0 1.2 0.6 1.7 2.2-2.7 0.7 1.8 1.7 2.1 0.2-0.5 0.1-1.6 0.7-1.7 1.2-0.2 0.7 2.4 1.3 3.1 0.7-0.1 0.7-1 1.2-1.4 1.2 0.2 0.6 1.6 0.9 2.4 0.7-0.1 0.5-1.3 1.3-1.4s0.7 0.9 1.7 0.8 0.6-1.2 1.7-1.4c1.7-0.3 1.5 2.5 2.6 3.1 0.2-0.1 0.3-0.2 0.4-0.4l0.3-0.3c0.3-0.1 0.6 0 0.8 0.2 0.6 0 1.3-0.2 1.2-0.9 0.5-0.2 1.1 0.2 1.5 0.2 0.1-0.2 0.2-0.3 0.4-0.3 0.5-0.1 0.9 0.4 1.3 0.5 0-0.3 0.1-0.5 0.1-0.8 0.5-0.1 1 0.5 1.2 0.9 0.1-0.2 0.1-0.3 0.1-0.5 1.2-0.8 3.1 3 3.7 3.6 0.5-0.3 0.1-0.8 0.5-1 0.5 1 0.5 2.2 0.5 3.3l0.3-2.4c1.3 0.3 1.9 2.8 2.3 4 0-0.9-0.5-3.3 0.1-3.9 1.2 0.2 1.3 2.7 2 3.6 0.2-0.6 0.5-0.6 1-0.5 0.2-1 0.3-2.1 0.2-3.2 0-1.4-0.3-2.8 0.5-3.9 0.8 0 1.7 0.9 1.8 1.7-0.1-1.3-0.2-2.7 0-4 0.1-0.5 0.4-2.4 0.7-2.6 0.1-0.1 0.9-0.3 1-0.4 0.6-0.1 1-0.2 1.3-0.5 0.2 0.2 0.5 0.4 0.8 0.4v-1.2c0.7-0.9 1.6-2 2.6-2.6 0.2-0.1 0.4-0.1 0.6-0.1l0.3-0.3c0.8 0 1.9-0.2 2.7 0 1.2 0.3 1.4 0.8 2.1-0.5 0.3 0.3 0.5 0.7 0.8 1 0.7-0.3 1.2-0.5 2-0.6l0.2-0.9c1.6 0 1.5-1 2.5-2 1 0.5 1.2 0.1 2-0.3 0.2-0.4 0.5-0.6 0.9-0.6 0.5-0.2 0.7 0.2 1.1-0.3 0.1 0.3 0.5 0.6 0.6 0.9 0.6-0.3 0.9-0.8 1.1-1.5 0.3-0.8 0.8-1.2 1.6-1.3 0.5-0.3 1.7-1.4 2.4-1.4 1.1 1.6 0.5 3.7 1.5 5.4 0.9 0.1 1.2-0.9 1.2-1.7 0.4 0 1.7-0.5 2-0.4 0.7 0.2 1 1.1 1.8 1.3 1 0.3 1.5-0.4 2.3-0.1 1 0.3 1.5 0.7 2.5 0.8 0.1 0.5 0.1 0.9 0.1 1.4 1.5 0.7 3.8-1.5 5.3-1.9 0.2 0.2 0.3 0.5 0.2 0.8 0.9 0.3 1.8 0 2.7 0.2 0 0.3 0 0.6 0.1 0.9 0.6 0.1 1.2 0.2 1.8 0.2 0.4 0.1 0.6 0.3 0.8 0.6 0.1 0.3 0.3 0.4 0.7 0.4 0.6 0.2 1.1-0.3 1.7 0.1 0.3 0.3 0.5 0.6 0.7 0.9 0.3 0.1 0.6 0.1 0.8 0.2 0.1 0.3 0.3 0.6 0.6 0.9 0.4 0.2 0.8 0.2 1.3 0.2 0 0.2 0.1 0.4 0.2 0.5 0.7 0.9 1.6 0.2 2.5-0.7 0.6-0.1 1.1 0.1 1.5 0.6 0 0.3 0.1 0.7 0.1 1 0.3 0.2 0.6 0.4 1 0.5 0.3 0.2 1 1.1 1.2 1.2 0.3 0.2 0.6 0.2 1 0.1 0.2 0 0.4 0.1 0.6 0.1 0.6 0.6 0.3 1.7 0.5 2.4 0.5 0.1 0.8 0.1 1.2 0.5 0.3 0.9 0.6 1.9 0.9 2.9 0.1 0.4 0.1 0.7 0.2 1.1 0-0.7 0.1-1.2 0.3-1.2 0.2 0.9 0.2 1.9 0.3 2.8 0.1-0.1 0.4-0.4 0.7-0.3 0 0.3 0.1 0.6 0.1 0.9 0.2-0.1 0.3-0.3 0.3-0.6 0.9-0.3 0.6 2 0.7 2.4 0.4-0.5 0.3-1.2 0.6-1.8 1.3 0 1 2.8 1.9 3.4 1.3-0.2 1.3-2.9 2.1-3.7 0.6-0.6 0.4-0.6 0.8 0.4 0.3 0.8 1.3 2 2.3 1.6 1.2-0.4 0.3-2.4 0.6-3.4 1.3 0.1 1.1 2.8 1.6 3.6 0.2-0.7 0.2-1.5 0-2.2 0.1 1.5 0.8 3 0.7 4.5l0.3-1.8c0-0.3-0.1-1.7 0.3-2 1 0.6 1.7 1.8 2.3 2.8 0.4 0.7 0.9 1.9 1.8 2.1 0.2-1.3-0.2-2.5 0.2-3.8 1.1 0 1.9 0.6 2.6 1.4 1-0.5-0.8-2.9-0.2-3.3 0.8 0.5 1.4 1.1 2.4 1.3 0.2-1.3-0.1-2.6-0.1-3.8 2.1 0.4 3.8 2 6 1.4 0.1-0.8-0.5-2.6 0.3-3 0.8 0.4 1.6 0.8 2.4 1.3 0.3 0.3 0.6 0.5 1 0.5 0.1-0.6-0.3-2 0-2.4 0.5-0.6 2.1-0.3 2.8-0.2 0.3-0.6-1.1-2.5-1.4-3.2 0.1 0 0.2-0.1 0.3-0.1 0.7-0.1 1.5 0.5 2.3 0.3-0.1-0.4-0.1-0.7 0.2-1 0.3-0.1 0.7-0.2 1-0.2 1.1-0.1 2.3-0.2 3.4-0.5 0 0 1.8-0.4 1.9-0.8-0.3-0.7-0.8-1.2-1.3-1.7-0.4-0.4-0.9-0.7-1.5-0.9z"/> <path class="st14" d="m340.2 385.5c-1.1 0.4-1.8 1.3-2.7 2.1-0.8 0.7-4.2 2.7-4.3 3.9 0.6 0.2 1.2-0.1 1.8 0.1-0.2 0.2-0.3 0.5-0.1 0.8 1.3 0.2 1.6-0.1 1.9 1.1 0.4 1.8-1.3 1.2-1.5 2.4 1.1 0.4 2.2-0.4 2.5 1.1 0.5 2.1-1.3 3.6-1.5 5.5 0.4 0 0.8-0.1 1.2-0.2-0.3 2.3-1.9 3.3-3.1 5.1 0.3 0 0.6 0.1 0.8 0.2-0.2 1.2-1.3 1.8-1.5 3 2 1 4.4 0.3 6.4-0.1-1.8 1.4-3.7 2.7-5.4 4.2 0.7 0.4 1.6-0.4 2.1-0.2 0.8 0.4 0.3 1.5 0.5 2.3 0.3-0.2 0.6-0.3 0.8-0.5 0.4 1.4-0.7 2.9-0.3 4.2 0.4-0.4 0.9-0.6 1.4-0.6 1.1 2.6 0.2 6.6-1.1 9.1 0.6-0.6 0.6 0.2 0.5 1.1-0.1 1-0.4 2.2-0.8 3.1 1-1.3 2.1-2.3 3.5-3.1 1 1-1 3.1-0.8 4.1 0.3-0.5 0.5-1.1 1.1-1.4 0.3 2.3 0.1 4.6 0.1 7 0 0.5-0.3 2.8 0.1 3.5 1-0.9 0.8-3.3 1.5-4.6 0.5 0.2 0.4 0.8 0.3 1.4 0.3-0.5 0.5-1.1 0.6-1.7-0.1 1.4-0.2 2.9 0 4.3 0.8-2.7 2-4.7 3.8-6.8 0.8 1.4-0.2 3.4 0.2 5 1.6-1.9 1.5-5 3-7-0.1 2.2-0.6 5.2 0 7.4 1.9 0.5 2.4-4.2 3-5.3 1.2 1.7 0.5 4.5 1.1 6.5 2-0.9 2.6-3.8 4.1-5.3 0.7 1.1 0.5 2.2 1.1 3.4 2.3 0.1 3.6-3.6 3.8-5.4 0 0.9-0.7 6.2 0.4 6.2 1.1-1.1 0.5-3.3 1.1-4.7 0.7 1 0.7 2 1 3.1 1.9-1 1-6.1 2.3-6.5 0 0.9 0 2 1 2.4 0.9-0.7 0.6-1.8 1.1-2.7 0.7 0.9 1.3 3.6 2.6 3.7 1.7 0.2 0.9-2.4 1-3.7 1.2 0.8 2.5 4.1 3.1 5.1 0.9 1.4 1.7 2.8 2.6 4.2 2.1-0.7-0.6-4.4 1.3-5.3 1.7-0.8 4.1 2.4 5.1 3.1 1.6 1.2 3.7 2.9 5.8 3.1 0.3-1.2-1.1-1.8-1-2.9 1.4 1.1 3.7 5.9 6 5.1 1.9-0.6-0.7-5.6-0.4-7.1 1.5 0.8 2.4 2.8 3.7 3.9 0.9 0.7 3.1 2.5 4.5 1.6-0.3-1.5-1.2-2.9-1.1-4.4 4.6 3.6 9.6 8.4 15.7 8.9 1.3-1.6-1.8-4.6-2.5-6 0 1.2 1.6 3.8 2.6 4.4 0.2-1.7-1-3.5-1.8-4.9 2.1-0.5 5.6 2.7 7.6 1.2 2-1.4-3.9-7.8-4.6-9.4 1.1 0.1 1.7 1.1 2.8 1.2 0.9-1.5-0.7-4.1-1.2-5.4-0.5-1.2-2.1-3.8-1.5-5.2 1.4 0 2.9 0.1 4.3 0.4 1.2 0.1 2.5 0.2 3.7 0.3 1.1-0.5 0.5-4.7 0.2-5.6-0.3-0.8-0.7-1.5-1.3-2.1 0-0.2 0.1-0.4 0.3-0.5-0.2-1.3-1.3-2.6-1.3-3.8 1.2 0 2.3 0.8 3.5 0.6 1.5-0.2 1.2-0.8 1.2-1.8 0-1.8-0.2-3.7-0.5-5.4 0.4-0.3 2.2 0.8 2.8 0.9-0.1-1-2.2-2.6-2.8-3.4-0.4-0.6-1.3-1.9-1.2-2.8 0.6 0 1.2-0.1 1.7-0.1 0.4-1-0.7-1.7-0.8-2.7-0.2-1 0.3-2 0-3-0.3-0.8-0.9-1-1.3-1.7-0.3-0.4-0.3-1-0.7-1.4-0.7-0.8-2-2.1-2.9-2.6-1.9-1.2-5.3-1-7.4-1-6.7 0-13.4-0.1-20.2 0-2.5 0-4.9-0.5-7.4-0.5h-14.4-9.9c-2.5 0-4.8-0.4-7.3-0.9-1.2-0.2-2.2-0.1-3.4-0.5-1.4-0.4-2.8-0.8-4.1-1.1s-2.2-0.5-3.5-0.5c-1.4-0.1-2.5-0.8-4.1-0.5-0.9 0.2-1.5 0.3-2.5 0.5-0.4 0.1-1 0.4-1.3 0.5-0.7 0.2-1.5 0.1-1.6 1"/> <path class="st14" d="m353.4 360.6c-0.5-0.6-0.8-1.4-1.2-2.1 0.7-0.2 1.4 0.3 2.1 0.4 0.2-0.5 0.1-1-0.2-1.5-0.1-0.4-0.6-1.3-0.4-1.7 0.1 0 0.4 0.1 0.5 0 0.3-0.1 0.1-0.8 0-1v0.3c0.2-0.1 0.1-0.5 0.3-0.6s0.5 0.1 0.7 0.1c0.1-0.3-0.2-0.7 0.2-0.9 0.2 0.1 0.4 0.5 0.7 0.4s0.1-0.8 0.2-1.1c0.3 0.3 0.6 0.7 1.1 0.7 0.3-0.4 0.1-0.9 0.2-1.3 0.3 0.3 0.6 0.5 1 0.5 0.2-0.5 0.1-1.1 0-1.6 0.6 0.5 1.8 1.6 2.7 1.2 0.6-0.3 0.2-1.3 0-1.1 0.1 0.2 0.2 0.3 0.4 0.3 0.2-0.4-0.2-1.2 0.1-1.5 0.2 0.2 0.5 0.6 0.8 0.7 0.2-0.4 0.2-1 0.1-1.5 0.2 0 1 0.7 1.1 0.8 0.3 0.2 0.9 0.7 1.4 0.6 0.1-0.5-0.2-1.1 0-1.5 0.2-0.7 0.7 0 1.3 0 0.5-0.6 0.1-2 0.1-2.7 0.5 0.2 0.7 0.9 1.2 1.2 0.3-0.2 0.1-0.8 0.2-1.2 0.5 0.4 1.6 1.9 2.3 1.6 0.2-0.6 0-1.2 0.1-1.9 0.8 0.7 0.5-0.9 0.8-0.9 0.9 0.7 1.4 1.6 2 2.4 0.8-0.2 0.3-2.1 0.4-2.7 0.7 0.5 0.8 1.5 1.5 2 0.4-0.3 0.3-0.9 0.4-1.3 0.8-0.1 1.1 1.2 1.7 1.5 0.2-0.1 0.1-0.4 0.2-0.6 1.6 0 1.9 2 2.9 2.8 0.5-0.3-0.2-1.1 0.4-1.4 0.5 0.5 0.9 1.1 1.2 1.7 0 0.1 0.5 1.3 0.9 1.3 0.4-0.5 0-1.4 0.4-1.8 0.3-0.3 0.7 0.4 1 0.3 0.3 0 0.2-0.2 0.5-0.2 0.1 0.1 0.3 0.1 0.4 0.2 0.3 0 0.3-0.2 0.5-0.3 0.3 0.2 0.3 0.6 0.4 1 0.3 0.1 0.5-0.3 0.8-0.3 0 0.1 0.1 0.1 0.2 0.2 0.3-0.1 0.6-0.2 0.8-0.4 0 0 0.7-0.8 0.8-0.7 0.4 0.1 0.2 1.2 0.5 1.5 0.4-0.3 0.3-0.9 0.6-1.3 0.4 0.1 0.4 0.3 0.9 0.1 0.4-0.2 0.8-0.7 0.7-1.1 0 0.4-0.1 1.1 0.2 1.4 0.4-0.1 0.8-0.4 1.1-0.8 0.6-0.7 0.7-1.6 1.1-2.3 0.5 0.4 0.5 0.8 0.5 1.4 0.3-0.1 0.5-0.3 0.5-0.6 0.4-0.7 0.5-1.5 0.7-2.2 0.7 0.1 0.4 1.2 0.7 1.6 0.9-0.2 1.2-1.9 1.4-2.7 0.4 0.3 0.3 0.9 0.5 1.3 0.6-0.2 1.1-0.6 1.2-1.2v1.7c-0.1 0.5 0 1.1 0.1 1.6 0.3 0.6 0.7 0.2 1.1 0.1 0.2 0.9-0.2 1.8 0.4 2.6 0.9-0.2 1.5-0.7 2-1.5 0.6-0.9 1.3-1.6 2.1-2.3 0.4 0.1 0.6 0.4 0.4 0.9v1c0.2 0.2 0.3-0.2 0.6 0 0.1 0.4-0.1 1.2 0.1 1.5 1.1-0.4 2.1-1.1 3.2-1.6 0.5 1-0.3 2.1-0.3 3.2 0.4 0.4 1.4 0 1.8-0.2 1.2-0.4 2.2-0.8 3.4-1 0.2 0.9-0.8 1.7-1.4 2.4 0.1 0.1 0.4-0.1 0.5-0.1-0.1 0.8 0.7 0.5 1.3 0.4 0.5 0 1.7-0.2 1.6 0.7 0 0.2-0.2 0.4-0.1 0.6s0.2 0.1 0.3 0.3c0 0.1 0 0.2-0.1 0.2 0.1 0.3 0.3 0.4 0.7 0.3 0.4 0 2-0.4 1.5 0.5 0.3 0.1 0.6-0.1 0.8 0.1 0 0.4-0.6 0.7-0.5 1.1 0.3 0 0.5 0.1 0.8 0.2 0.7 0.3 1.4 0 2.1 0.2 0.1 0.8-1.4 1.2-1.6 1.9-0.1 0.2 0 0.7 0.2 0.9s0.6 0.2 0.9 0.4c0.2 0.2 0.2 0.3 0.2 0.5 0.2 0.7 0.1 1.4 0.1 2.1s0.1 1-0.4 1.6c-0.4 0.5-0.8 1.2-1.3 1.6s-1.2 0.8-1.8 1.2c-1 0.6-2.1 0.7-3.2 0.8-1.7 0.1-3.5 0-5.2 0h-6.4c-3.5 0-6.9-1-10.4-1.3-4.4-0.3-8.9 0.1-13.3-0.3s-8.8-0.7-13.2-0.7c-1.6 0-3 0.1-4.6-0.2-1.3-0.3-2.6-0.7-3.8-1-0.8-0.2-1.5-0.1-2.1-0.7-0.6-0.5-1.1-1.1-1.5-1.8-0.2-0.4-0.5-1.3-1.1-1.4"/> <path class="st1" d="m387 351.1s-14.4-4.1-30 5.8-16.6 13.2-16.6 27.2c0 13.9 12.5 28.6 18 34.1s19.2 2.2 21.9 7.9c0 0 8.4-5.5 11.8-2.2 3.4 3.4 35.3-9.4 36.4-29.7 1-20.3 0.6-40-41.5-43.1z"/> <path class="st15" d="m364.9 400.9s7.2-5.5 5.5-11.3-13.5-10.1-18-2.6c-4.6 7.5 4.6 2.2 6.5 4.8s-7 8.9-7 8.9 8.5 4.6 13 0.2z"/> <path class="st16" d="m360.9 369.1c0-0.9-0.1-1.2-0.7-1.9-0.7-0.7-1.6-0.9-2.5-1.5-0.8-0.5-1.4-1.2-2.1-1.9-0.5-0.6-0.9-0.7-1.6-1.1-0.9-0.5-1.6-1.1-2.5-1.5-0.2-0.1-0.4-0.2-0.7-0.2-9.8 7-10.5 11.3-10.5 23.1 0 8.8 5 18 10.1 24.9 0.2-0.1 0.1-0.2 0.1-0.6 0.1-0.5 0.1-1.4 0-1.9-0.1-0.7-0.3-1.7-0.6-2.3-0.3-0.8-0.9-1.4-1.3-2.1-0.5-0.9-1.1-1.5-1.4-2.5-0.3-0.7-0.5-1.3-0.6-2.1-0.1-1.3 0.4-3-0.4-4.1-0.2-0.3-0.4-0.4-0.6-0.7s-0.3-0.7-0.5-1c-0.6-1.3-0.8-2.2-0.8-3.7 0-1.8 0-3.4 0.9-4.9 0.6-0.9 1.3-1.6 1.8-2.5 0.8-1.3 1.6-2.6 2.8-3.6 0.8-0.7 1.6-1.4 2.4-2 0.9-0.7 2.1-1.1 3.1-1.6 0.8-0.4 1.5-0.5 2.3-0.8 0.7-0.3 1.2-0.8 1.9-1.2 1.4-0.7 1.4-1 1.4-2.3z"/> <path class="st16" d="m368.9 401.6c-0.3 0.6-1.7 0.3-2.3 0.3-0.9 0-1.6-0.1-2.2 0.7-0.8 1.2-0.4 2.7 0.9 3.2 0.5 0.2 1.1 0.5 1.6 0.6s2.2 0.2 2.5-0.1c0.6-0.4 1.8-3.6 0.4-3.5"/> <path class="st17" d="m426.9 289c0.1-2.4-0.2-4.7-0.5-7.1-0.5-3.3-2-8.2-0.6-11.4 0.8 0.3 1.3 0.8 1.7 1.6 0.8-1.9 0.2-6 0.1-8-0.1-3.9-0.8-7.7-0.7-11.6v-14.2c0-2.4-0.1-3.3 1-5.2 0.4-1.4 0.9-2.7 1.6-4 0.9-1.1 1.8-2.1 2.7-3.1 0.4-0.9 0.7-1.9 1-2.9 1-2.3 2.9-4.2 5.4-4.9 2.4-0.7 5.1-0.8 7.6-0.8 2 0 4.4-0.4 6.3 0.1-2.9 1-5.8 1.7-8.6 2.9 0.5 2.5 9 1.2 10.9 1.1 1.3-0.1 2.7-0.1 4 0.1 0.3 0.4 0.5 0.8 0.7 1.3 0.9 0.7 2 1 3.2 0.7 2.5 0 4.9-0.1 7.4-0.1 2.8 0.1 4.5 1.2 7 2.3 0.1 0.9-1 1.3-1.5 1.9-0.6 0.9-0.6 1-0.7 2.1-0.1 1.5 0.1 2.1 1.4 2.9-0.3 0.8-0.9 1.1-1.9 1.1-2.6 1.1-4.5 1.9-5.5 4.6 2.8 0.8 5.4-0.1 8.2 0.4-0.3 2.4 2.2 3.4 4.1 4.6 1.3 0.8 2.3 0.9 3.7 0.9 1.1 0 2.1 0 3.2-0.1 1.1 0.3 0.5 0.8 1.4 1.3 0.7 0.3 1.3 0.5 2 0.6 1.2 0.7 1.4 1.3 2.1 2.4 0.6 0.9 1.4 1.6 1.6 2.7 0 0.5 0 0.9-0.1 1.4 0.5 1.6 1.7 2 3.3 2.6 2.9 1.1 5.2 1.6 7.2 4.3-4.7 0.4-9.9-6.6-14.3-3.9 1.2 2 2.7 3.3 4 5.2 0.4 0.6 0.8 1.6 1.3 2.2 0.2 0.3 1.1 1 1.3 1.2 0.6 1.3 0.5 5.1 0.2 6.5-0.6 2.7-2.5 0.5-2.8-1.1-0.3-1.9-0.8-2.8-1.9-4.5-1.2-1.7-1.7-1.6-3.5-2.3-2.8-1.1-5-3.8-7.9-5.1-3.6-1.7-7.6-3.1-11.6-3-2.2 0-4.9-0.5-6.9-0.1-2.7 0.6-4.7 4.4-6 6.7-1.9-0.2-5.1 3.9-5.3 5.7-0.2 1.6 0.6 1.3-0.8 3-1.8 2.3-4.8 2.1-6.5 4-0.6 0.6-1.2 2.1-1.7 2.9-0.7 1.3-0.6 1.5-0.6 3 0 4.7-3.2 5.9-6.5 8.1-1.3 0.9-2.2 2.6-3.4 3.4-0.9 0.5-3.8 0.3-4.7 0-1-0.3-2.8-2-3.3-2.8-1-1.6 1-2.6 0.6-4"/> <path class="st1" d="m371.5 202.8c-0.1-2.6 0.2-4.7-1-7.3-0.7-1.6-5.3-7.5-3.2-9.2 0.8 0.2 2.7 1.3 3.2 0.3 1.4-2.5-5.3-8.1-3.4-9.8 0.5 0.2 1 0.3 1.5 0.2 0-2.2-1.3-4.1-1.4-6.2 2.2 0.4 3.5 2.5 5.6 3 0.2-1.9-0.6-4.4 0-6.2 1.3 1 4.1 5.7 5.8 4.9 0.7-2.4-0.4-5.5 0.6-7.7 2.7-0.1 4.8 5.3 6.7 7.1 1.3-1.4 0.8-3.8 0.8-5.6 2.1-0.2 3.1 4 3.6 5.5 1.7-0.9 0.4-3.6 2.7-3.5 2.6 0.1 1.9 4.1 3.4 5.2-0.1-0.8-0.2-1.7 0.1-2.5 1.7 1.1 0.4 7.8 0.5 9.6 0.1 2.2 1 4.7 1.5 6.8 0.2 0.9 1.1 3.9 0.6 5.1-1.5-2-2.6-5.8-4.7-7-0.2 1.5-0.1 3.1-0.1 4.6 0 1 0.7 5.2-0.3 5.8-0.8-0.5-1.5-1.9-2.4-1.8-0.2 0.9 0.1 1.8-0.2 2.7-1.8-1.4-1-4.4-2.6-6.2-0.2 0.8-0.1 1.6-0.3 2.4-0.5 0.3-0.7 0.9-0.6 1.6 0 1.7 0.1 3.4 0.1 5-0.2 1.3-0.7 2.1-0.8 3.5-0.2 2.7 0 5.4 0 8.1v-1.6c-0.4 1-0.2 2.1 0.3 3.2 0.6 3.1 0.9 6.2 1.1 9.3 0.1 4.5-0.2 9-0.1 13.5 0 0.9 0.2 11.2 2.7 10.4 0.9-4.1 0.1-9.1 0.1-13.3v9.4c0 3.1-1.1 8.3 0.9 11.1 0.5-0.5 0.5-1.1 0.7-1.8 2.1 1.3-1.2 6.6 1.2 7.6 1.3-1.7 1.1-4.7 1.4-6.7-0.1 0.8-0.5 2.3 0.7 2.4 0.3-0.6 0.6-1.2 0.9-1.7 0.4 0.6 0.4 1.1 0.6 1.8 0.4 0.1 0.8 0.2 1.1 0.2 0.6 1.2-0.1 2.7 0.3 4l0.6-0.3c-0.4 2.2-1.3 4.4-1.5 6.7-0.4 4.1 0.2 8.3 0.1 12.4-0.1 3.1-0.7 6.1-0.7 9.2v7.7c0 1.4 0.4 4.9 0 6.3-0.8-2-1.6-3.9-2.5-5.8-0.1-0.4-0.9-4.7-1.6-5.1-2.3-1.1-2.7 2.5-3 3.8-0.7-0.9-0.6-2.2-0.5-3.3-1 1.3-2.5-1-3.4-1.5-0.1 0.9 0.3 3-0.6 3.4-0.1-1.5-0.4-2.9-0.9-4.4-1.1 3-0.2 6.1-0.8 9.1-0.8-1.4-1-3-1.9-4.4 0 2.7-0.6 2.4-2.8 2.4-0.6-0.4-1.1-0.4-1.6 0-0.4 0.8-0.6 1.6-0.8 2.4-1.2 0.1-1.1-1.7-2.5-1.1-0.6 0.2-0.9 1.2-0.9 1.7-0.6-0.9-2.6-5.8-4-5.1-0.1 0.4 0.1 0.6 0.5 0.6 0.3-2.1-1.4-4.2-1.3-6.4 1.3 0 3 1.8 4.1 1.4 0.4-1.9-0.5-3.3-0.6-5.1 0.5 0.6 1.1 1.2 1.6 1.8 0.9-0.8-2.1-4.5-2.2-4.7-1.1-1.8-2.5-3.7-2.4-5.9 2.1 0.8 4.1 2 6.2 2.9 1.5-2.2-2.9-5.2-2.5-7.6 0.6 0.2 1.2 0.3 1.8 0.3-1.6-5.5-5.8-10.1-7.2-15.8 1.3-0.1 2.2 1.1 3.2 1.6 0.3-1.1-0.4-2.5 0.8-3.2 0.4 0.3 0.9 0.4 1.4 0.3 0.1-1.9-1-3.5-1-5.2 0.4-0.6 0.5-1.2 0.4-1.9 0.2-1.9-0.3-3.9 0.1-5.8 1.4 0.4 1.3 2.4 2.7 3 0.8-0.8 1-1.7 0.7-2.9 0-1.2-0.6-2.9 0.5-2.1 0.5-1.6 0.2-3.6 0.2-5.3v-6c0-2.4 0.4-5.1 0.1-7.4-0.3-2.1-2.3-3.5-3.4-5.1-0.7-1-1.5-2.1-1.6-3.3-0.3-2.1 0-3.9-0.7-6-0.7-2.3-1.8-2.9-0.7-5.1"/> <path class="st1" d="m220.9 271.6c-0.9 0.2-1.7 0.7-2.2 1.6-1.8 1.8-3.5 3.7-5.1 5.7-2.7 3.1-5.3 6.1-8.6 8.6-2.6 1.9-4.8 3.2-5.9 6.4-0.3 0.8-1.3 2.7-1 3.6 1 0.1 3.5-1.2 4.2-1.4 1.2-0.4 3-1.1 4.3-1.3-0.1 1.1-0.5 2.2-1.2 3.2-0.5 1.1-1.8 4.1-3 4.9 0.5-1.1 1.3-0.6 1.5 0.3 0.3 1-0.1 2.4-0.5 3.3h0.9c0.4 1.5 0.2 3.8 0 5.3-0.3 1.7-1 2.7-1 4.4 0.1 3.6-0.2 7.3-1 10.9-0.4 1.7-1 3.2-1.1 5-0.2 3-1.3 5.4-2.3 8.1-0.6 1.6-0.4 1.7-0.3 3.2 0.2 2-0.6 3.8-1.2 5.6 2-1.7 3.6-3.8 5.3-5.7 0.5-0.6 3-4.1 4.4-3.8-0.2 2.2-1 4.5-0.5 6.8 2.3-1.6 3.4-5 4.7-7.3 0.4-0.6 1-2.1 1.7-2.6 0.9 1 0.9 2.3 1 3.5 1.1-0.6 2-1.9 2.5-3 0.1-0.4 0.2-0.7 0.3-1.1 0.2-0.7 0.6-1.1 1.3-1 1.2-1.4 2-4.5 2.5-6.1-0.1 0.1 1.3-5 2.1-5.2 0.3 1.4 2.6 0.6 3.2 0.1 2-1.6 1.5-4.4 2.3-6.4 0.8-0.1 1.8-0.1 2.6 0.2 1-1.2 0.5-4.5 0.5-5.8 0-1.6-0.3-2.8 0.5-4.1 1.2-2.1 2.6-4.1 3.9-6.1 1.4-2.2 2.3-5.2 2.5-7.9 0.2-1.6 0.7-2.9 1.1-4.4 0.4-1.6 0.4-3.2 0.6-4.8 0.4 1.2 0.1 2.4 1 3.4 4-2.9 3.1-7.9 3.8-12.2 0.4-2.3 1.1-4.4 1.4-6.7 0.1-1.3-0.3-3.2 0.2-4.4-3.1 2.3-5.2 5.5-7.5 8.5-3.6 4.6-6.9 9.2-10.3 14-0.7 0.9-1.4 1.8-1.9 2.8-0.1 1-0.3 1.9-0.7 2.8-2 5.6-5.4 10.4-9.1 15 0.3-0.4 0.6-0.8 0.8-1.3 0.1 2.3-0.6 4.8-2.8 5.8-0.5-0.7 0-2.6-0.9-2.8s-1.6 1.5-2.6 1.5c-1.3-1.4-0.6-4.8-0.6-6.6 0-2.9 1.1-5.7 1.9-8.5-1.9-1.1 1-4.4 1.3-5.8 0.4-2.4 0-5.4 1.3-7.7 1-1.7 1.4-3.6 2.3-5.4 0.4-0.8 1.8-4 2.8-3.8"/> <path class="st1" d="m250.5 176.9c-0.8 0.1-1.3-0.7-1.7-1.3-1.6-2-3-4.2-4.7-6.1s-3.4-3.8-5-5.8c-0.4-0.4-1.6-1.4-1.3-2.1 2.4 0 4.2 2.3 6.2 3.4-0.2-1-3-5.1-1.8-5.7 0-5.2-0.5-10.3-0.5-15.5 0.4 0.1 0.5 0.3 0.5 0.8v-3.9c0-1.2-0.4-4.1 0.1-5.3 0.5 0.9 0.2 1.7 0.5 2.5 0.8-0.4 0.4-3.5 0.4-3.8 0-1.3-0.2-4.7 0.8-5.8 2.3 0.5 0.6 6.4 2 7.9 0.3-1.6 0.5-3.3 0.4-4.9 0-0.6-0.7-4.9 0.6-5.1 1.5 2.4 0.4 5.2 1.6 7.6 1.3-1.5-1.1-8.3 1.4-8.7 0.7 0.6 0.8 1.5 1.3 2.3 1.4-0.6 1-5.1 1.2-6.4 0.1-1.3-0.1-2 0.6-2.7 0.2 0.3 0.5 0.4 0.9 0.5 1.6-1 2.9-2.3 4-3.9 2.5-3 4.8-6 6.3-9.6 2 0 2.7-4.7 3.5-6.2 0.5-0.8 1.1-2.6 2.3-2.1 0.3 0.3 0.6 0.7 0.9 1 1.1 0.6 2.2 0.3 3.1-0.7 1.4-1.2 2.7-2.6 3.9-4.1 0.3-0.4 1.5-3 2.1-3.5 0.6-0.4 2.2-0.2 2.9-0.6 0.5-0.3 1-0.6 1.3-1.1-2.1 2.6-3.9 5.5-5.9 8.2-4 5.6-7.2 11.7-11.3 17.3-2.5 3.5-5.5 6.6-7.4 10.5-0.7 1.4-2.4 4.3-1.7 6 1.9-0.2 1 6.8 1 8v-1.5c-0.3 4-1.5 7.9-2.3 11.8-1.6 0.1 0.8 12.1-1 13.8-0.9-0.3-1.3-1.1-1.7-1.9-0.8 1.4 1.4 5.4 2.1 6.7 1.3 2.4 3.8 4.5 4 7.4 0.1 1.2 0.1 2.7-0.1 3.9-1.3-0.1-1.3-0.4-1.9 0.8-0.3-0.2-0.8-0.7-1.2-0.7-0.3 0.3-0.5 0.6-0.6 1-0.5-0.3-0.8-0.8-1.1-1.4-0.8-0.9-1.2-0.6-2.2-1-1.6-0.6-2.7-1.6-4.6-1.4"/> <path class="st1" d="m273.8 154.2c-0.3-1.9-0.5-3.6-0.6-5.5-0.1-2.1-0.5-5.1 0.1-7.1 1.2 0.9 1.7 3.7 3.1 3.9 2.1-1.9 0.4-5.6 1.2-7.9 2.1 0.1 1.3 3.5 2.4 4.7 1.6-0.9 2.6-4.5 3-6 0.7-2.1 0.8-4.4 1.8-6.4 1.6 0.4 0.8 3.2 2.7 3.4 1.8 0.1 3.4-2.7 4-3.9s0.6-3.9 2.4-4c0.7 0.9 1.3 1.9 1.6 2.9 0.4 0.9 0.7 3.3 2.1 3.2 2.2 0 1.7-3.7 2.5-4.9 1.8 0.6 2.3 4.8 2.2 6.4v-1.3c0 6.3 0.3 12.6-2.3 18.5-1.4-0.2-3.1-2.2-4.6-2-2.3 0.3-1.4 9-2.2 10.9-0.8-0.5 0-1.5-0.5-2.1-0.6 1.3-0.4 3.9-1.4 4.8-2.3-0.9-3-4.4-5.6-4.5-1 1.6-1.6 3.3-2.6 4.8-0.4 1.1-1.1 1.8-2.2 2-0.4-0.3-0.8-0.4-1.3-0.3-0.7 1.3-0.9 3.9-2.1 4.8-1.4 1.1-3.2 0-4.8-0.1-2.4-0.2-4.1 0.4-4.2-2.6 0-0.8-0.2-1.9 0-2.7 0.4-1.4 1.5-1.3 1.6-3 0.2-2.1 0.7-2.3 2.4-3.2 0.5 0 1-0.2 1.2-0.6 0.4-0.4 0-0.8 0.5-1.2-0.1-0.6-0.8-0.8-1-1.5"/> <path class="st1" d="m226.2 233c-0.1-1.4-1.2-2.6-1.7-3.8-0.8-1.6-1.1-3.6-2.6-4.7-0.7-0.5-1.8-1.2-2.6-1.5-0.7-0.2-1.4 0.1-1.9-0.5 1.3-0.4 2.7-0.1 3.9 0.3 0.8 0.2 1.7 0.4 2.4 0.8s1.3 1.1 2.1 1.3c-0.8-2.3-2.3-4.2-3.6-6.1-1-1.4-2.1-3.5-3.5-4.7-1.1-0.9-2.6-2-4.1-1.7 2.8 0 5.7-0.2 8.5 0 1.1 0.1 2.1 0.4 3.2 0.6 0.8 0.1 1.7-0.3 2.4 0.4-0.5 0.1-2.1-0.8-2.4-0.9-2.4-0.9-4.5-2.4-6.8-3.5-3-1.4-6-3.1-9.1-4.1 0.2-0.8 3-0.4 3.7-0.4h7c1.2 0 1.8 0 2.7 0.6-2.5-3.5-5.5-6.4-8.5-9.5-1.1-1.1-2.1-2.2-3.4-3-0.6-0.4-1.1-0.6-1.4-1.2 4.4-0.4 8.3 3.6 11.3 6.3 1.4 1.2 2.8 2.5 4.2 3.7 0.4 0.4 0.9 0.9 1.5 1 0.5-0.5 0.7-1.1 0.5-1.9-0.1-1.2 0.1-2.4 0.6-3.5 1-2.9 2.3-5.2 4.7-7.1 0.5 2.5 0 5.6 0 8.1 0 1.1-0.5 4.2 0.4 5 0.6-1.1 1.7-2.3 2.6-3.1 1.3-1 2.7-0.3 4.1-1-0.2 0.6-0.5 1.1-1 1.5-1.1 1.4-1.8 2.6-2.4 4.3-0.8 2.6-1.6 5-2.2 7.7-0.3 1.1-0.5 2.3-0.5 3.5 0 0.3-0.2 2.2 0 2.6 0.6 1.2 3.5 0.2 4.7 0.5-0.9 2.3-2.7 2.5-4.3 4.1-1.2 1.1-1.9 2.4-2.6 3.7-1.7 3.1-4.8 5.1-7.3 7.5"/> <path class="st1" d="m541.8 321.9c1.6 0.2 3.6 2 4.7 2.9 2.7 2.1 5.1 4.5 7.1 7.2 1.2 1.5 2 3.4 3 5.1 0.6 1 0.8 1.5 0.8 2.7-0.1-1.9-1.2-3.5-2.2-5-0.6-0.9-1.6-2.1-0.3-2.8 1-0.5 3.7 0.8 4.2 1.7-1.5-2.5-2.4-5.2-3.6-7.8-0.6-1.3-1.3-3-2.8-3.4 1.5-0.1 2.7 1.7 4.2 1.8 2.4 0.1 0.3-3.6-0.7-4.5 0.9 1.1 3.1 1.4 4.3 1.8 2.3 0.8 4.4 1.5 6.8 1.8 5.3 0.7 10.8 0.5 16.1 0.4-4 0.3-7.9-0.9-11.7-2.1-2.7-0.8-6.4-1.4-8.9-2.7-1.2-0.6-2.7-1.7-3-3 2.3-0.2 4.4 2.1 6.9 1.9 3.3-0.3-0.2-2.1 0.2-3.6 2.2-0.5 4.3 1 6.4 0.3-0.4-2-1.2-4-1.5-6 1.2-0.8 4.2 1.2 5.2 2-0.4-1.1-1.1-2-1.9-2.8 1.9-0.1 3.8 1 5.5 1.5 0.8 0.2 1.4 0.1 1.6 0.7-1.1-0.4-2.4-2.7-2.9-3.3-1.5-1.9-2.9-3.8-4.2-5.9-1.5-2.7-2.6-5.4-4.7-7.7-2.4-2.6-5.6-4.1-8-6.7 1.3 1.5 4.1 1.6 4.9 3.5-1.8 0.4-4.8-0.7-6.4 0.3 0.7 1.5 2 2.4 2.8 3.8 0.5 0.9 0.9 1.7 1.5 2.6-0.3 0.1-0.5 0.1-0.8 0 0.8 0.6 1.7 1.9 1.6 3-0.9 0.3-2.3-0.4-3 0-1.4 0.9 0.2 3.9-0.1 5.3-1.2 0.4-4.6-2.6-4.7 0-0.8 0.3-1.5-0.2-2.2 0.2-0.4 2.9 1.9 5.7 2.3 8.6-0.8 0-1.4-0.3-1.9-1-1.3-1-2.8-1.8-4.4-2.1-0.1 0.5-0.2 1.2-0.7 1.5-0.9 0.8-2.2-0.6-3 0 0.1 2 1.4 5.3 0 7-0.5-0.1-0.9-0.4-1.2-0.8-0.3 0.7 0 1.4-0.1 2.2-1.6 0.6-3.3-1-4.9-0.7-2 0.4-0.7 3-1.3 4.4-0.5 0.1-3.1 0-3-0.7 1.2-0.1 2.1 0.6 3.2 0.7s1.4 0.1 2.4 0.6"/> <path class="st1" d="m563.9 367.9h3.5c1.6 0 3 0.5 4.6 0.7-1.4 0.2-1.1-1.1 0.2-1.3 3.6-0.4 7.6 0 11.2 0 2.9 0 5.9-0.4 8.6 0.7 2.6 1.1 5 1.8 7.2 3.7-0.7 1.1-7.4-1.2-7.3-1.1-2.7-0.6-6-1.6-8.9-1.6 2.8 0.9 4.7 3.7 7.5 4.9 1.5 0.6 5.8 1.8 6.1 3.4-3.3 0-6.6-1-10-0.4 0.7 1.2 3 0.5 3.3 2.2-3.5 0.3-6.9-0.4-10.4-0.5-0.5 0.7 0.4 1 0.5 1.7-2 0.4-4.5-1.8-5.9-2.7s-3-1.9-4.7-2.1c0.2 0.1 0.4 0.3 0.5 0.5-1-0.8-1.9-1.7-3-2.4-0.7-0.4-3.2-0.9-1.7-1.6-1.3-1.8-5.9-4.1-8.2-3.5 2.7 0.2 5.1 0.1 7.5 1.2"/> <path class="st16" d="m428.5 380.6c-3.3 0.6-4.7 1.6-7.9-1.7-4.3-4.3-13.3-0.7-23.5 4.6-10.2 5.4-5 6.1-5.9 15.2s-6.4 0-10.4-2.8-3.9 1.8-3.9 13.3c0 7.3-7.2 10.5-12.4 11.8 6.2 1.4 13.9 0.8 15.8 5 0 0 8.4-5.5 11.8-2.2 3.4 3.4 35.3-9.4 36.4-29.7 0.2-4.5 0.4-9.1 0-13.5z"/> <path class="st15" d="m402.1 400.9s-7.2-5.5-5.5-11.3 13.5-10.1 18-2.6c4.6 7.5-4.6 2.2-6.5 4.8s7 8.9 7 8.9-8.5 4.6-13 0.2z"/> <path class="st16" d="m381.8 379.4c-2.2 0-3.7 0-5.7-1.3-1.2-0.8-2-1.5-2.7-2.8-0.3-0.6-1-1.1-1.2-1.7-0.3-1 0.2-2 0.9-2.6 0.5-0.5 1.5-1.1 2.1-1.5s1.2-0.4 1.8-0.7c0.6-0.2 0.9-0.5 1.5-0.6 2.3-0.3 4.8 0 7.1 0h13.2c3.8 0 7.8-0.5 11.2 1.3 0.9 0.5 2.4 1.6 2.9 2.5 0.3 0.6 0.3 1.3 0.3 1.9 0 1.6-0.9 2.2-2.4 2.5-0.8 0.2-1.6 0.5-2.4 0.7-1.1 0.3-2.4 0.1-3.5 0.1-0.7 0-1.2-0.1-1.8 0.2-0.4 0.4-1 0.8-1.5 1.1-0.5 0.1-1 0-1.5 0-0.9 0-1.6-0.1-2.4-0.3-0.5-0.1-1 0-1.5-0.1-0.2-0.1-0.6-0.4-0.7-0.5-0.7-0.3-1.5-0.2-2.2-0.5-0.8-0.3-1.4-0.8-2.3-0.9-1.2-0.1-2.9-0.1-4.1 0.1-1.3 0.2-2 0.7-3 1.5-0.5 0.4-0.9 1-1.6 1.2-0.6 0.2-1.3 0.1-1.9 0.1"/> <path class="st15" d="m384 377.8-3.8 48.3 8.3-50s-2.2 0.1-4.5 1.7z"/> <path class="st1" d="m530.8 349.4c-0.3 1.1 0.3 2.1 1 2.9 1 1 2.1 1.8 3.4 2.2 0.7-0.1 1.1 0.1 1.3 0.6-0.8 1.1-0.2 1.9 0.6 2.7-0.6 0.6-1.4 1-2.2 1.3-0.7 0.4-1.4 0.8-2 1.3-0.8 0.6-1.7 1.2-2.5 1.9-0.4 0.7-0.1 1.1 0.7 1.5-0.3 1.3-1.1 2.4-2.3 3.1-1.2 1.3-4.3 3.8-4 6 0.2 1.8 2.6 2.3 4 2.3-0.2 0.5-0.5 0.9-1.1 1.1-0.8 0.4-1.6 0.9-2.4 1.5-1 2.1 3.6 1.9 4.4 2.6-0.5 1-1.7 2.1-1.2 3.3 0.6 1.1 1.5 1.8 2.8 2.2 0.8-0.2 1.3 0 1.5 0.6-0.5 0.2-1.9 0.6-1.9 1.3-0.1 0.9 0.9 1.1 1.5 1.5-0.6 1.2-2.4 1.9-2.8 3.2-0.1 0.4 0 0.8 0.3 1.2 0.4 0.3 0.8 0.5 1.2 0.8 1 0.1 1.9 0.5 2.6 1.2-0.3 1-0.9 1.7-1.8 2.1-0.7 0.3-1.1 0.8-1.3 1.4-0.2 0.9 0.3 2.2 0.8 3 0.4 0.3 0.5 0.7 0.2 1.2-0.8 1-1.8 1.9-2.9 2.7-0.5 0.4-3.9 2.5-2.5 3.6-0.8 1.7-2.6 2.4-2.8 4.5-0.1 1.3 0.3 1.6 1.4 2.2 0.9 0.5 2.9 1 3.4 2.1-0.8 0.9-1.8 1.6-2.9 2.1-0.4 0.2-3.4 1.4-3.7 2.2 0.5 0.2 1 0.6 1.4 1 0.2 0.5 0.1 0.9-0.2 1.2-0.2 0.2-0.2 0.4-0.1 0.7 0.3 1.1 2.5 2 3.4 2.6-1.1 2.4-5.4 2.6-5.3 5.7 0 0.7 0.2 0.9-0.4 1.5-0.8 0.7-1.8 0.7-2 1.8-0.1 0.8 0.2 0.7-0.4 1.5-1.3 1.8-3.4 2.9-4.9 4.5-0.7 0.7-1.5 1.6-0.9 2.6 0.5 0.8 1.3 0.4 1.4 1.5 0 0.5-0.2 0.8 0 1.3 0.6 1.5 3.3 1.3 4.2 2.4 0.6 0.8 0.1 1.3 0 2.2-0.1 0.7-0.1 1.5 0 2.2 0 0.9-0.2 0.9-0.5 1.6-0.4 1-0.2 1.8 0.3 2.7 1.2 2.1 3.5 3.1 4.5 5.2-0.8 0.2-2.1-0.9-2.7-1.3-1.3-0.9-1.9-0.9-1-2.5 1-1.4 2-2.7 3.1-4 0.6-0.7 1-1.4 1.1-2.3 0-1.4-2-1.1-3-1.3 0.2-0.8 1.2-1.1 1.5-2 0.2-0.5 0.2-0.8 0-1.3-0.1-0.1-0.2-0.1-0.3-0.2-0.3-0.4-0.4-0.8-0.3-1.3 0.1-0.6 0.4-0.9 0.2-1.6-0.3-1-0.9-0.5-0.4-1.8 0.5-1.4 2.1-2.2 2.8-3.5s0.8-2.2 1.7-3.5c0.3-0.4 1.9-1.8 1.9-2.6-2.1-0.1 0.6-4.8 0.7-5.1 0.5-1 3-3.7 0.4-3.7 0.1-0.9 0.5-1.6 1.2-2.2 0.5-0.6 1.1-1.3 1.6-1.9 0.8-0.4 1.2-0.9 1.3-1.6-1.1 0-2 0.3-1.3-1.2 0.9-1.2 1.8-2.4 2.8-3.5 0.4-0.6 2.1-2.2 1.3-3.1-0.8-1-2.6 0-2.6-1.7 0.7-1.6 1.8-3 3.2-4.2 0.4-0.4 3.3-2.3 3.2-3.5-0.7-0.2-2.3 0.3-2.7-0.3-0.2-0.4 0.3-1.4 0-1.9-0.4-0.9-0.9-0.6-0.9-1.7-0.1-1.2 0.5-3.6-0.2-4.7-0.5-0.8-1.4-0.7-1.7-1.6-0.5-1.7 1.1-3.5 1.3-5.1 0.1-0.7-0.4-0.8-0.4-1.7 0.1-1.4 0.7-2.6 1.6-3.6 0.6-1 2-2.4 2-3.8-0.6 0-1.2 0.1-1.8 0-0.3-0.5 0-1.1 0-1.7-0.1-1.1-1-1.6-1.3-2.5-0.4-1.2 0.1-2.9 0.3-4.1 0.1-0.9 0.1-1.9 0.1-2.8 0-2.3-0.2-4.4 0.7-6.6 0.6-1.4 1.1-2.8 1.8-4.1 0.6-1.2 1.3-2 1.3-3.3 0-0.4 0.1-1.1-0.1-1.4-0.4-0.6-1.6-1.1-2.2-1.3-0.6-0.3-0.7-0.5-1.2-0.8-0.3-0.2-0.7-0.5-1-0.6-0.9-0.3-1.8-0.4-2.7-0.4"/> <path class="st5" d="m459.7 395.9c0.3 0 25.8 3.6 33.6 20.4 4.7 10.2 2.1 23.1-7.7 38.5l0.8 0.5c10-15.7 12.7-29 7.8-39.5-8.1-17.3-34.1-20.9-34.4-20.9l-0.1 1z"/> <path class="st5" d="m463.1 414.2c0.1 0 12.7 1.6 22.6 8 10.3 6.6 28.2 12 40.3 9.4l-0.2-1c-11.9 2.5-29.5-2.7-39.6-9.3-10.1-6.5-22.9-8.1-23-8.1l-0.1 1z"/> <path class="st5" d="m463.2 421.4c0.4 0.3 44.5 30.8 53.7 47.2l0.9-0.5c-9.3-16.6-52.2-46.3-54-47.5l-0.6 0.8z"/> <path class="st5" d="m463.1 416.7c0.3 0.2 32.1 18.2 57.3 39.3l0.6-0.8c-25.2-21.1-57.1-39.2-57.4-39.4l-0.5 0.9z"/> <path class="st5" d="m462.6 432.8c0.3 0.1 30.8 9.1 19.7 62l1 0.2c11.2-53.9-20.1-63.1-20.5-63.2l-0.2 1z"/> <rect class="st5" transform="matrix(.7071 -.7071 .7071 .7071 -173.53 469.36)" x="479.3" y="420.8" width="1" height="46.8"/> <path class="st5" d="m253.3 382.8c17.2 3.3 62.6 5.4 63 5.4v-1c-0.5 0-45.8-2.1-62.9-5.4l-0.1 1z"/> <path class="st5" d="m248.5 413.2 0.5 0.9c34.1-18.4 63.2-17.5 63.5-17.5v-1c-0.3 0-29.6-0.9-64 17.6z"/> <path class="st5" d="m276.4 426.6c-18.8 18.8-56.6 46.4-57 46.7l0.6 0.8c0.4-0.3 38.3-27.9 57.1-46.8 18.6-18.6 30.4-18.2 30.6-18.2l0.1-1c-0.6 0-12.5-0.4-31.4 18.5z"/> <path class="st5" d="m269 442.7c-21.1 28.9-50.3 52.3-50.6 52.6l0.6 0.8c0.3-0.2 29.6-23.7 50.8-52.7 20.9-28.7 36.2-28.6 36.3-28.6v-1c-0.6-0.1-15.8-0.3-37.1 28.9z"/> <path class="st5" d="m291 455-4.9 38.6 1 0.1 4.9-38.6c1.8-14.4 13.7-31 13.8-31.2l-0.8-0.6c-0.1 0.2-12.1 17-14 31.7z"/> <path class="st5" d="m273.3 495.3 1 0.3c10.9-42.2 35-59.3 35.2-59.4l-0.6-0.8c-0.2 0.1-24.5 17.3-35.6 59.9z"/> <path class="st5" d="m273.6 443.4c-11.2 17-36.9 35.7-37.2 35.9l0.6 0.8c0.3-0.2 26.1-19 37.4-36.1 11.2-16.9 30.8-23.2 31-23.3l-0.3-1c-0.1 0-20.1 6.5-31.5 23.7z"/> <path class="st5" d="m282 456 1 0.3c4.3-13.9 23.3-28.3 23.5-28.5l-0.6-0.8c-0.8 0.6-19.5 14.7-23.9 29z"/> <path class="st5" d="m271.4 446.8v1c12.7 0 35.7-14.6 36.7-15.3l-0.5-0.8c-0.3 0.2-23.8 15.1-36.2 15.1z"/> </svg>